/* XPM */
static char *_e07bc4f33e24c0a80f7fd435562459bglR4lEHoVsS3CFLK[] = {
/* columns rows colors chars-per-pixel */
"64 64 181 2 ",
"   c gray26",
".  c gray31",
"X  c #525252",
"o  c #5C5C5C",
"O  c #646464",
"+  c #6D6D6D",
"@  c #737373",
"#  c #7D7D7D",
"$  c #A97700",
"%  c #AB7A01",
"&  c #AE7F0B",
"*  c #B07F01",
"=  c #AE810B",
"-  c #B18006",
";  c #BB8700",
":  c #BB8800",
">  c #B1830A",
",  c #AD841D",
"<  c #B18413",
"1  c #B68812",
"2  c #BB8C13",
"3  c #B28719",
"4  c #B58A1D",
"5  c #BA8D1A",
"6  c #BD911E",
"7  c #AD8725",
"8  c #AD892E",
"9  c #B58B23",
"0  c #B88F2E",
"q  c #BF9423",
"w  c #AD8C37",
"e  c #BB9639",
"r  c #C18C00",
"t  c #C08E0A",
"y  c #CB9400",
"u  c #D09900",
"i  c #D59F0B",
"p  c #DCA200",
"a  c #D6A317",
"s  c #E1A501",
"d  c #E6A900",
"f  c #E9AC00",
"g  c #F5B500",
"h  c #F8B700",
"j  c #F7B804",
"k  c #F8B802",
"l  c #F7B90B",
"z  c #F8BB0C",
"x  c #E9B218",
"c  c #F8BC12",
"v  c #F8BF1A",
"b  c #C09523",
"n  c #C39827",
"m  c #C79C2D",
"M  c #C89D2E",
"N  c #C79E34",
"B  c #CA9F30",
"V  c #CBA134",
"C  c #CFA639",
"Z  c #D0A73B",
"A  c #D2AA3E",
"S  c #EAB728",
"D  c #F6BF23",
"F  c #ECBD3A",
"G  c #F9C01E",
"H  c #F8C022",
"J  c #F6C028",
"K  c #F8C229",
"L  c #F6C333",
"P  c #F8C431",
"I  c #F8C73A",
"U  c #F9C83F",
"Y  c #AC904A",
"T  c #B79747",
"R  c #AA9256",
"E  c #A79565",
"W  c #AA9B77",
"Q  c #B5A16F",
"!  c #BAA674",
"~  c #B4A47C",
"^  c #C09F49",
"/  c #C2A04A",
"(  c #CCA748",
")  c #D3AC45",
"_  c #DBB44C",
"`  c #C4A352",
"'  c #D2AE53",
"]  c #D8B456",
"[  c #DEB953",
"{  c #E8BB40",
"}  c #E7BF4F",
"|  c #C7AC69",
" . c #CEB067",
".. c #CDB16D",
"X. c #DDBE6A",
"o. c #CFB470",
"O. c #D4BB7B",
"+. c #F8CA46",
"@. c #F6CA4B",
"#. c #F8CB49",
"$. c #E6C25E",
"%. c #F6CB51",
"&. c #F8CE54",
"*. c #F8CF5A",
"=. c #F9D15E",
"-. c #DEC175",
";. c #E9C663",
":. c #ECCA67",
">. c #ECCA68",
",. c #F1CF6E",
"<. c #F7D163",
"1. c #FAD363",
"2. c #F5D36D",
"3. c #F8D56C",
"4. c #EECE73",
"5. c #F5D475",
"6. c #F8D774",
"7. c #F9D876",
"8. c #F6D67A",
"9. c #F7D87D",
"0. c #F9D97A",
"q. c #7F8080",
"w. c #838383",
"e. c #8C8C8C",
"r. c #90908F",
"t. c #949494",
"y. c #9D9D9D",
"u. c #A49D8B",
"i. c #A39E93",
"p. c #A09E98",
"a. c #A7A08E",
"s. c #ABA28C",
"d. c #B4A787",
"f. c #AAA394",
"g. c #A5A29D",
"h. c #ABA79C",
"j. c #B4AB96",
"k. c #A2A2A2",
"l. c #A8A8A6",
"z. c #ABABAB",
"x. c #B4B1AA",
"c. c #BAB5A9",
"v. c #B3B3B3",
"b. c #BABABA",
"n. c #C9B584",
"m. c #D5BD81",
"M. c #D2BF90",
"N. c #C3BCAC",
"B. c #C3BDB0",
"V. c #F9DB83",
"C. c #F8DE92",
"Z. c #FBE197",
"A. c #FBE29B",
"S. c #D5C7A3",
"D. c #C7C1B2",
"F. c #E0CFA6",
"G. c #E1D0AA",
"H. c #E9DBB7",
"J. c #E8DCBD",
"K. c #FAE3A1",
"L. c #FBE7AC",
"P. c #FCE9B4",
"I. c #C5C5C5",
"U. c #CACACA",
"Y. c #DBDAD9",
"T. c #EADFC4",
"R. c #EBE1C7",
"E. c #EDE3CC",
"W. c #FBEDC4",
"Q. c #EEE5D0",
"!. c #EBE6DB",
"~. c #FCF1D1",
"^. c #FDF5DE",
"/. c #E6E7E8",
"(. c #F1EFEC",
"). c #FCF6E2",
"_. c #F9F6EF",
"`. c #FEFAED",
"'. c #F9F6F1",
"]. c #FDFBF5",
"[. c #FFFFFE",
/* pixels */
"v.z.k.k.k.k.k.l.k.l.b.z.k.l.z.@ k.k.k.k.k.k.k.k.k.l.k.k.k.k.b.r.y.k.k.k.k.k.k.t.y.k.k.k.k.l.k.r.k.k.k.k.k.k.k.k.k.k.k.k.k.k.k.k.",
"y.k.k.k.k.k.k.k.k.k.k.k.k.k.k.q.y.k.k.k.k.k.k.k.k.k.k.k.l.k.k.y.k.k.k.k.k.k.k.e.t.k.k.y.k.k.l.t.t.z.k.k.k.k.k.k.k.k.k.k.k.k.k.k.",
"k.k.k.k.k.k.k.k.k.k.k.k.k.k.k.w.k.k.k.k.k.k.k.k.k.k.l.k.k.k.k.t.y.k.k.k.k.k.k.k.e.l.y.k.y.k.k.k.e.k.k.k.k.k.k.k.k.k.k.k.k.k.k.k.",
"k.k.k.k.k.k.k.k.k.l.l.k.k.k.k.q.k.k.k.k.k.k.k.k.k.k.k.k.k.k.l.e.t.k.k.k.k.k.k.y.y.k.k.k.k.k.k.k.y.k.k.k.k.k.k.y.k.y.k.k.k.k.k.k.",
"k.k.k.k.k.k.k.k.k.k.k.k.k.k.k.t.k.k.k.k.k.k.k.k.k.l.x.x.x.c.N.c.N.D.B.B.v.k.k.y.k.k.k.k.y.t.k.y.t.k.k.k.k.k.k.k.k.k.k.k.k.k.k.k.",
"k.k.k.k.k.k.k.k.k.k.k.k.k.k.y.y.k.k.k.k.g.k.k.k.k.~ = = = = = = & = & < N.k.k.k.k.k.k.k.k.k.k.k.k.k.k.k.k.k.k.k.k.k.k.y.k.k.k.k.",
"k.k.k.k.k.k.k.k.k.k.k.k.k.k.q.# k.k.k.k.k.k.g.k.k.! % > - - - = * > * * c.b.v.y.y.k.k.k.k.k.k.y.t.k.k.k.k.y.k.k.k.k.k.k.k.k.k.k.",
"l.k.k.k.k.k.k.k.k.k.k.k.k.k.v.t.y.k.k.k.k.k.f.R T ' ;.;.;.;.;.;.;.;.) % 9 T T h.w.k.y.k.k.y.t.w.e.l.k.k.k.k.k.k.k.k.k.k.k.k.k.k.",
"k.w.e.k.k.k.k.y.k.k.k.k.k.k.k.w.k.k.k.k.k.k.W % % [ 0.0.0.0.0.0.0.0.[ % % % % f.k.k.k.l.k.k.l.k.t.k.k.y.k.k.k.k.k.k.k.k.k.k.k.k.",
"k.v.z.k.l.k.k.k.y.k.k.k.k.l.k.w.k.k.k.k.k.f.' _ _ F P P P P P P P P F _ ) C % R a.k.k.k.k.k.k.k.k.k.k.k.k.k.y.k.y.k.k.k.k.k.y.# ",
"k.k.k.l.k.k.k.k.k.k.k.y.k.k.k.w.k.k.k.y.k., $.0.0.K g k k k k k h h K 0.0.;.% % Y k.k.k.k.k.k.y.t.k.k.k.k.y.k.k.k.k.k.k.k.k.r.k.",
"k.k.k.k.k.k.k.k.k.k.k.k.k.l.y.# y.k.k.k.g.m >.2.#.v g s p p p p p g v @.3.>.V > 9 h.k.k.k.k.k.k.k.k.k.k.k.k.k.k.k.k.y.k.k.k.t.v.",
"k.k.l.k.k.k.k.k.k.k.k.k.k.k.y.q.y.k.k.k.N 9.0.&.k g f % % % % % * f g k &.9.0.M % 8 g.k.k.k.k.y.k.k.k.k.k.k.y.k.k.k.k.y.k.k.l.k.",
"k.k.l.k.k.k.k.k.k.e.y.k.k.z.t.+ k.k.k.a.C 0.3.#.k g s 2 1 1 1 1 2 s g k #.2.7.Z > % f.g.k.k.k.k.y.k.k.k.k.k.k.k.k.k.k.k.k.k.k.k.",
"y.k.k.y.k.k.k.k.e.@ y.k.k.y.O   g.g.y.-.5.5.H j k y 2 >.2.>.>.2.;.2 y h j H 6.5.;.> 8 k.k.k.k.t.e.l.y.k.k.k.y.k.k.k.k.k.k.k.k.k.",
"o o @ w.t.k.k.k.r.@ y.y.w.+ o X + r.- :.0.3.G g g r 5 2.0.0.0.0.5.5 r g k G 6.7.:.> % y.y.k.y.. q.k.k.k.k.k.k.k.y.k.k.k.k.k.k.k.",
"b.b.b.z.k.k.k.k.k.k.k.k.k.k.k.l.k.k.* >.*.v z f : A $.H &.7.6.%.D %.A : f j G *.>.> % y.z.b.b.r.e.l.k.k.k.k.k.k.k.k.k.k.k.k.k.k.",
"k.k.y.y.k.k.k.k.k.k.k.k.k.k.k.k.k.k.& :.#.h h s % [ 1.k +.0.0.+.j 1.[ % s k k #.>.> % W k.k.k.y.e.l.k.k.k.y.k.k.k.k.k.k.k.y.k.k.",
"k.k.k.k.k.k.k.k.k.k.k.k.k.k.k.k.k.h.O.8.+.h i i Z F P k G +.6.=.U U S u u p g #.4.) q & k.k.k.t.t.k.k.k.k.k.k.k.k.y.k.k.k.k.k.k.",
"k.k.k.k.k.k.k.k.y.k.k.k.k.k.k.k.k.M.].C.+.g ; b 6.K k k k z 3.0.5.v k k : ; g +.0.0.( $ & k.l.t.t.k.k.y.k.k.k.k.k.k.k.k.k.k.k.k.",
"y.k.k.k.k.k.k.k.k.k.k.k.k.k.k.k.k.m.].L.*.g ; b 5.J g g g l %.2.5.P c k r ; k #.0.0.A % % k.l.y.w.k.k.k.k.k.k.k.k.k.k.k.k.k.k.k.",
"k.k.k.k.k.k.k.k.k.k.y.k.k.y.k.k.i.m.[.[.C.g ; q 5.J g k g k k I 7.6.%.g r ; g #.0.0.A % % k.k.k.q.l.k.k.k.y.y.k.y.k.k.k.y.k.k.t.",
"k.k.k.k.k.k.k.k.k.k.k.k.k.k.k.k.f.m.[.[.C.g ; q 5.L j g g g k K 3.0.&.l r ; g #.0.0.A % % k.k.k.@ y.k.k.k.k.k.k.k.k.k.k.k.k.k.t.",
"k.k.k.k.k.y.k.k.k.k.y.k.k.k.k.y.i.m.[.[.C.f ; q 5.2.%.j k g k j G <.7.<.6 ; g +.0.0.A % $ g.k.k.@ t.k.y.k.k.k.k.k.k.k.k.k.k.k.t.",
"k.k.k.k.k.k.k.k.k.k.k.y.k.k.k.k.W O.[.[.C.l - q 8.8.:.j g g k g j <.0.6.b : g #.0.0.A % $ f.k.p.o t.t.t.k.k.k.k.k.k.k.y.k.k.k.q.",
"k.k.y.k.k.y.k.k.k.k.k.k.k.k.k.k.E m.[.[.C.g ; N W.C.2.%.H g k k k H +.5.b ; g #.0.0.A % $ f.k.k.q.w.k.q.e.k.k.k.k.k.k.k.k.k.k.y.",
"k.k.k.k.k.k.k.k.k.k.k.k.k.k.k.k.R m.[.[.A.g ; ^ ].K.5.8.L g g k k h K 5.q ; g #.0.0.A % % f.k.r.t.z.z.y.e.k.k.k.k.k.k.k.k.k.k.k.",
"y.k.k.k.k.k.k.k.k.k.k.k.k.k.k.k.R m.[.[.C.g ; / '.W.A.9.%.J j k k g v +.5 ; g #.0.0.A % $ f.k.e.# k.y.v.v.k.k.l.k.k.k.k.k.k.k.k.",
"k.k.k.k.k.k.k.k.k.k.k.k.k.k.k.k.w m.[.[.Z.g : / ].[.).9.8.2.z k k k k k r : g #.0.0.A % % u.k.e.@ k.k.k.l.k.k.k.k.k.k.k.k.k.k.k.",
"k.k.k.k.k.y.k.k.k.k.k.k.k.k.k.k.w m.[.[.C.g : T '.[.).C.9.2.H l g k k g r : g #.0.0.A % % s.l.e.t.l.k.k.k.k.k.k.k.k.k.k.k.y.k.k.",
"k.k.k.k.k.k.k.z.k.z.l.l.k.k.k.k.8 m.[.[.Z.g ; / [.[.[.].L.5.6.U g k k k : ; g #.0.0.A $ % d.k.w.w.z.k.k.k.k.k.k.y.k.k.k.k.l.k.+ ",
"t.y.y.k.y.y.y.w.O O + w.w.e.t.k.7 m.[.[.A.g ; ^ ].[.[.[.P.9.9.+.k k k k r ; g #.0.0.A $ $ ~ k.o   q.y.k.k.y.@ t.k.k.y.k.k.t.O . ",
"k.z.b.b.b.z.v.v.v.v.v.v.z.b.z.e.9 ) K.].Z.g ; / ].[.[.[.`.~.V.3.&.c g g r : g #.0.0.A % % ~ v.k.t.k.k.k.k.l.k.k.z.v.v.v.z.k.t.z.",
"l.k.l.k.k.k.l.z.z.z.v.v.z.v.k.e.7 A V.`.A.g ; / [.[.[.[.[.`.V.7.5.v k g r : g #.0.0.A % % ~ k.k.l.k.k.k.k.k.k.k.k.k.k.k.k.k.k.k.",
"k.k.k.k.k.k.k.k.k.y.k.k.y.l.e.t., Z 0.L.3.g ; / ].[.[.[.[.].W.K.6.#.K g : ; g #.9.7.A % % ~ k.k.k.k.k.k.k.y.k.k.k.k.k.k.k.k.k.k.",
"k.k.k.k.k.k.k.l.k.k.k.k.k.l.e.t.3 A 0.9.#.g ; / ].[.[.[.[.[.[.W.7.9.&.k r ; g +.9.0.A % % ~ k.k.k.k.k.k.k.k.k.k.k.k.k.k.k.k.k.k.",
"k.k.k.k.k.l.k.k.l.k.k.l.k.l.y.t.3 A 0.0.+.g ; / [.[.[.[.[.[.[.~.A.9.*.J t : k +.0.0.A % $ ~ k.k.k.k.k.y.k.k.k.k.k.k.k.k.k.k.k.k.",
"k.k.k.k.k.k.k.k.k.k.k.k.k.k.k.y.< A 0.0.#.g ; / ].[.[.[.[.[.[.[.].Z.6.5.b : g #.0.0.A % $ ~ k.k.y.y.k.k.k.k.k.k.k.k.k.k.k.k.k.k.",
"k.k.k.k.k.y.k.k.k.k.k.k.k.k.k.k., A 0.0.#.g ; / ].[.[.[.[.[.[.[.].A.V.6.q ; g #.0.0.A % % ! k.k.l.k.k.y.k.k.k.k.k.k.k.k.k.k.k.k.",
"k.k.k.y.k.k.k.k.k.k.k.k.k.k.y.e.4 A 0.0.#.g ; / [.[.[.[.[.[.[.[.[.].W.6.q ; g #.0.0.A % $ Q r.t.# e.y.k.y.y.y.k.k.y.y.k.k.y.y.t.",
"k.k.k.k.k.k.k.k.k.k.k.k.k.l.y.q.w Z 8.8.#.g : ^ ].[.[.[.[.[.[.[.[.[.~.5.b : g #.0.0.Z % $ ~ t.y.r.t.z.b.v.z.z.e.e.k.k.k.l.k.k.t.",
"k.k.k.y.k.k.t.y.k.k.k.k.k.l.e.e.l.| m 2.#.g d a ` T.[.[.[.[.[.[.[.[.H.n i f h #.,.m 2 & n.l.l.l.z.z.l.z.z.k.z.y.t.k.k.k.k.z.l.k.",
"k.k.k.k.k.k.e.k.k.k.k.k.k.k.t.e.l.d.> >.#.k k s % G.[.[.[.[.[.[.[.[.G.% s h k #.>.> $ < z.k.y.k.k.y.k.y.k.k.k.l.t.k.k.k.k.k.k.k.",
"k.k.k.k.k.y.t.k.k.k.k.k.k.l.t.e.l.g.> >.=.P z f y ] G.].[.[.[.[.].F.m.o.4.1.P =.>.> % < l.k.k.k.k.k.k.k.k.k.k.t.# k.k.k.k.k.k.k.",
"k.k.k.k.k.k.k.k.k.k.k.k.k.l.e.q.k.k.& >.0.6.v h k r 0 _.[.[.[.[.'.0 ^ [.[.^.0.0.>.> % < l.k.k.k.k.k.k.k.k.k.k.k.q.k.k.y.k.k.k.y.",
"k.k.k.k.k.k.k.k.k.k.k.k.k.k.t.e.l.k.W [ ,.6.P c k y n J.R.R.R.R.J.` O.[.[.).Z.4._ > 4 T k.k.k.k.k.k.k.k.k.k.k.y.q.k.k.k.k.k.k.k.",
"k.k.l.k.t.k.k.z.k.k.k.k.k.z.e.e.l.k.k.e B 0.7.&.k g d > = > = & 3 T.].[.[.[.]. .% % ..k.p.k.k.k.k.k.k.k.k.k.k.k.e.k.k.k.k.y.k.k.",
"e.k.y.O X t.t.w.r.y.y.y.t.q.X # k.k.k.W N 5.6.&.l j f ; - % < > 4 Q.[.[.[.[.'.| % > n.k.k.k.k.k.k.k.k.k.k.k.k.k.q.k.k.k.k.k.k.k.",
"k.y.k.y.y.y.k.t.y.v.v.k.y.z.e.@ k.y.k.l.j.5 ;.6.<.v h f f x H.E.Q.].[.[.[.!.N < 9 D.k.k.k.k.k.y.k.k.k.k.k.k.k.k.e.k.k.k.y.k.k.k.",
"z.k.v.b.b.v.v.v.v.v.b.U.I.I.z.t.l.k.k.k.l.* $.0.0.K h h h v ).[.[.[.[.[.[.T.& % 9 z.k.k.k.k.k.k.k.y.k.k.k.k.k.k.t.k.k.k.k.k.y.t.",
"k.k.y.y.k.k.y.k.y.k.y.+ # k.t.t.k.k.k.k.k.h.( B B { #.#.+.&.K.~.[.[.Q...../ % ` S.k.k.k.k.k.k.k.k.k.k.k.k.k.k.k.y.k.k.k.k.k.k.y.",
"k.k.k.k.k.k.k.k.k.k.z.k.e.k.y.e.k.y.k.k.k.k.e $ $ [ V.0.9.9.0.P.[.[.G.% % $ $ M.k.k.k.k.k.y.k.k.k.y.k.k.y.k.k.k.t.k.k.k.k.k.k.k.",
"k.k.k.k.y.k.k.k.z.k.k.b.b.k.k.y.k.k.k.k.k.k.f.Q ` ' } _ _ [ } X.G.G...% e ` ` B.k.k.k.k.k.k.k.k.k.k.k.k.k.k.k.k.t.k.k.k.k.k.k.k.",
"k.k.k.k.k.k.k.k.k.k.k.k.k.k.k.k.k.k.y.k.k.k.y.t.Y.` $ % % $ % % % % % - S./.Y.z.k.k.y.k.k.k.k.k.k.k.k.k.k.k.k.k.t.k.k.y.k.k.k.k.",
"k.k.k.k.k.k.y.k.y.k.k.k.k.k.k.t.k.k.k.k.k.k.k.t.Y.| 9 9 9 9 9 9 9 9 9 0 J.l.k.k.k.k.k.k.k.k.k.k.k.k.k.k.k.k.k.k.r.k.k.k.k.k.k.k.",
"k.k.k.k.k.k.k.k.k.k.k.k.k.k.k.e.k.k.k.k.k.y.z.+ r.!.!.!.!.!.!.!.!.!.!.!.(.k.y.y.y.k.k.k.k.k.k.k.k.k.y.k.y.y.k.@ + z.y.k.k.k.t.k.",
"k.k.k.k.k.k.k.k.k.k.k.k.k.k.y.y.k.k.k.k.k.k.k.t.q.t.k.z.k.k.q.q.W y.z.y.z.z.z.z.z.y.k.k.k.k.k.k.k.k.k.y.y.k.t.# q.y.t.z.k.y.e.t.",
"k.k.k.k.k.y.k.k.k.k.k.k.k.k.t.w.k.k.k.k.y.t.y.r.v.z.z.z.z.v.v.z.z.k.z.z.z.z.v.b.U.v.k.k.k.k.k.k.k.k.k.k.k.z.z.b.z.z.k.k.k.l.z.k.",
"k.k.k.k.k.k.y.k.k.k.k.k.k.k.y.e.k.k.k.k.k.t.@ q.k.k.k.y.k.y.y.k.k.y.k.k.k.k.y.y.y.k.k.k.k.k.k.k.k.k.y.k.k.k.k.y.t.k.k.k.k.y.k.k.",
"k.k.k.k.k.k.k.k.k.k.k.k.k.k.y.t.k.k.k.k.z.v.I.z.k.k.k.k.k.k.k.k.k.k.k.k.k.k.k.k.k.k.k.y.k.k.k.k.k.k.k.k.k.k.k.k.t.k.k.k.k.k.k.k.",
"k.k.k.k.k.k.k.k.k.k.z.k.k.k.y.e.k.k.k.k.y.y.k.k.k.k.k.k.k.y.k.k.k.y.k.k.k.k.k.k.k.k.k.k.k.k.k.k.k.k.k.k.k.k.k.y.t.k.k.k.k.k.k.k.",
"k.k.k.k.k.k.k.k.k.k.k.k.k.z.t.w.k.k.k.k.k.k.k.r.t.k.y.y.k.y.k.k.k.k.k.k.k.k.k.k.k.k.k.k.k.k.y.k.k.k.k.k.k.k.k.k.e.k.k.k.y.k.k.k.",
"k.k.k.k.k.k.k.k.k.k.k.k.k.k.t.w.k.k.k.k.k.k.y.k.k.k.y.k.y.k.k.k.k.k.k.k.y.k.k.k.k.k.k.k.k.y.k.k.k.k.k.k.k.k.k.k.e.k.k.y.k.k.k.k.",
"k.k.z.k.k.k.k.k.k.k.k.k.k.k.# + z.k.k.y.k.k.k.t.k.k.k.k.k.k.k.k.k.k.k.k.k.k.k.k.k.k.k.k.k.k.k.y.k.k.k.k.k.k.k.y.w.k.k.k.k.k.k.k."
};