/* XPM */
static char *result[] = {
/* columns rows colors chars-per-pixel */
"64 64 101 2 ",
"   c #060100",
".  c #0B0100",
"X  c #130200",
"o  c #1C0400",
"O  c #250501",
"+  c #2B0500",
"@  c #340600",
"#  c #3B0700",
"$  c #430901",
"%  c #4B0901",
"&  c #520A01",
"*  c #5C0C02",
"=  c #630C01",
"-  c #6C0E01",
";  c #720E02",
":  c #7C0F01",
">  c #751004",
",  c #7D1103",
"<  c #810F01",
"1  c #831203",
"2  c #8A1102",
"3  c #931303",
"4  c #9E1402",
"5  c #961808",
"6  c #9C1908",
"7  c #A31402",
"8  c #A91502",
"9  c #AB1B09",
"0  c #B31602",
"q  c #BC1702",
"w  c #B11905",
"e  c #B91904",
"r  c #C71701",
"t  c #D61B03",
"y  c #DE1B02",
"u  c #E61D03",
"i  c #D1210A",
"p  c #E62006",
"a  c #E7240B",
"s  c #E8260D",
"d  c #E7280F",
"f  c #E8280F",
"g  c #E72A12",
"h  c #E82C14",
"j  c #E82F18",
"k  c #E9331B",
"l  c #E93720",
"z  c #E93B24",
"x  c #EA3F29",
"c  c #EA422D",
"v  c #EB4631",
"b  c #EB4935",
"n  c #EC4E3A",
"m  c #EC523E",
"M  c #EC5542",
"N  c #ED5946",
"B  c #ED5D4B",
"V  c #ED614F",
"C  c #EE6453",
"Z  c #EE6857",
"A  c #EF6C5B",
"S  c #F06D5D",
"D  c #EF7262",
"F  c #F07464",
"G  c #F07768",
"H  c #F07A6B",
"J  c #F17F71",
"K  c #F18375",
"L  c #F28779",
"P  c #F28A7D",
"I  c #F28F82",
"U  c #F39285",
"Y  c #F4958A",
"T  c #F4998D",
"R  c #F49E92",
"E  c #F5A297",
"W  c #F5A69B",
"Q  c #F5A89E",
"!  c #F6ACA2",
"~  c #F6B0A7",
"^  c #F7B4AB",
"/  c #F8B6AD",
"(  c #F7B8AF",
")  c #F7BBB3",
"_  c #F8BFB8",
"`  c #F8C2BB",
"'  c #F9C7C0",
"]  c #F9CAC4",
"[  c #F9CFC9",
"{  c #FAD2CD",
"}  c #FBD6D1",
"|  c #FBDAD6",
" . c #FBDDD9",
".. c #FCE1DE",
"X. c #FCE5E2",
"o. c #FDE9E6",
"O. c #FDECEA",
"+. c #FDF1EF",
"@. c #FEF4F3",
"#. c #FEF8F7",
"$. c #FFFFFF",
/* pixels */
"$.$.$.$.$.$.$.$.$.$.$.$.$.$.$.$.$.$.$.$.$.$.$.$.$.$.$.$.$.$.$.$.$.$.$.$.$.$.$.$.$.$.$.$.$.$.$.$.$.$.$.$.$.$.$.$.$.$.$.$.$.$.$.$.",
"$.$.$.$.$.$.$.$.$.$.$.$.$.$.$.$.$.$.$.$.$.$.$.$.$.$.$.$.$.$.$.$.$.$.$.$.$.$.$.$.$.$.$.$.$.$.$.$.$.$.$.$.$.$.$.$.$.$.$.$.$.$.$.$.",
"$.$.$.$.$.$.$.$.$.$.$.$.$.$.$.$.$.$.$.$.$.$.$.$.$.$.$.$.$.$.$.$.$.$.$.$.$.$.$.$.$.$.$.$.$.$.$.$.$.$.$.$.$.$.$.$.$.$.$.$.$.$.$.$.",
"$.$.$.$.$.$.$.$.$.$.$.$.$.$.$.$.$.$.$.$.$.$.$.$.$.$.$.$.$.$.$.$.$.$.$.$.$.$.$.$.$.$.$.$.$.$.$.$.$.$.$.$.$.$.$.$.$.$.$.$.$.$.$.$.",
"$.$.$.$.$.$.$.$.$.$.$.$.$.$.$.$.$.$.$.$.$.$.$.$.$.$.$.$.$.$.$.$.$.$.$.$.$.$.$.$.$.$.$.$.$.$.$.$.$.$.$.$.$.$.$.$.$.$.$.$.$.$.$.$.",
"$.$.$.$.$.$.$.$.$.$.$.$.$.$.$.$.$.$.$.$.$.$.$.$.$.$.$.$.$.$.$.$.+.$.$.$.$.$.$.$.$.$.$.$.$.$.$.$.$.$.$.$.$.$.$.$.$.$.$.$.$.$.$.$.",
"$.$.$.$.$.$.$.$.$.$.$.$.$.$.$.$.$.$.$.$.$.$.$.$.$.$.$.+.W ^ $.O.O.o.$.$.$.$.$.$.$.$.$.$.$.$.$.$.$.$.$.$.$.$.$.$.$.$.$.$.$.$.$.$.",
"$.$.$.$.$.$.$.$.$.$.$.$.$.$.$.$.$.$.$.$.$.o.$._ ! _ Q G P ! | ^ X.] ` $.$.$.$.$.$.$.$.$.$.$.$.$.$.$.$.$.$.$.$.$.$.$.$.$.$.$.$.$.",
"$.$.$.$.$.$.$.$.$.$.$.$.$.$.$.$.$.$.$.$.O.` ! L P ] C K J U B L ] Z ` C $.$.@.$.$.$.$.$.$.$.$.$.$.$.$.$.$.$.$.$.$.$.$.$.$.$.$.$.",
"$.$.$.$.$.$.$.$.$.$.$.$.$.$.$.$.$.#.$.$.} $.H J S G x I x M C M B n G V J ` ) Q $.$.#.$.$.$.$.$.$.$.$.$.$.$.$.$.$.$.$.$.$.$.$.$.",
"$.$.$.$.$.$.$.$.$.$.$.$.$.$.$.$.#.] ^ ! C C M n B N x N N b x V A x c v N Z L G T ] } ] $.$.$.$.$.$.$.$.$.$.$.$.$.$.$.$.$.$.$.$.",
"$.$.$.$.$.$.$.$.$.$.$.$.$.$.$.$...U Y J b v x v k l j j j h M j a g h j x b v b D n Z / ..o.$.$.$.$.$.$.$.$.$.$.$.$.$.$.$.$.$.$.",
"$.$.$.$.$.$.$.$.$.$.$.$.$.$. .[ X.{ W R z x l z h j h z j h h g g a a p g h c j k z k V R ' } O.$.$.$.$.$.$.$.$.$.$.$.$.$.$.$.$.",
"$.$.$.$.$.$.$.$.$.$.$.$.$.$.! K ~ W S N x x s l z h s j g u a u p p u u p p a g h k z b A Z )  .| $.$.$.$.$.$.$.$.$.$.$.$.$.$.$.",
"$.$.$.$.$.$.$.$.$.$.$.$...P W K G C V x z j k g a g s a u u u u u u u u u u p p p p h z c B L ~ X.$.$.$.$.$.$.$.$.$.$.$.$.$.$.$.",
"$.$.$.$.$.$.$.$.$.$.$.$.o.L I B H Z b j l l g s p s u a u u u u u u u u u u u u p p p a a j b D ` Q $.$.$.$.$.$.$.$.$.$.$.$.$.$.",
"$.$.$.$.$.$.$.$.$.$.$.$.$.) / m V m k x k j a a u u u u u u u u u u u u u u u u u a u u a a h b C A T X.$.$.$.$.$.$.$.$.$.$.$.$.",
"$.$.$.$.$.$.$.$.$.$.$...{ D F M c c x g j h p p u u u u u u u u u u u u u u u u u u u a u u a a h b L } ` $.$.$.$.$.$.$.$.$.$.$.",
"$.$.$.$.$.$.$.$.$.$.X.X.! G P m z k k k h a a p u u u u u u u u u u u u u u u u u u u u u a a u a b x D  .$.$.$.$.$.$.$.$.$.$.$.",
"$.$.$.$.$.$.$.$.$.| @.! W C C M j j j a p s u u u u u u u u u u u u u u y u u u u u u u u u a h a g c M B @.$.$.$.$.$.$.$.$.$.$.",
"$.$.$.$.$.$.$.$.$.} T D M b n c k a h d a p p u u u u u u u u u u u u u u u u u u u u u u u a u a g x m b K $.$.$.$.$.$.$.$.$.$.",
"$.$.$.$.$.$.$.$.$.{ D M b x k k h g j a s p u u u u u u u u u u u u u u u y u u u u u u u u u u u k g k x V I $.$.$.$.$.$.$.$.$.",
"$.$.$.$.$.$.$.$...E U C k h k j j j f f u p u u u u u u u u u u u y u u u u u u u u u u u u u u p a a k x C Q } $.$.$.$.$.$.$.$.",
"$.$.$.$.$.$.$.$.$.T U v z l f z d j a g u u u u u u u u u u u u u u u u u y u u u u u u u u u u p f s p j c E  .$.$.$.$.$.$.$.$.",
"$.$.$.$.$.$.$.$. .R C c k a s h h g g p u u u u u u u u u u u u u u u y u u u u u 4 r y q u u u p u a g j v `  .o.$.$.$.$.$.$.$.",
"$.$.$.$.$.$.$.{ W W m b k a a a h h j p 0 = w u u u u u u u u u u u u u u u ; $ % X 4 q 4 u u u p u a a p c L Q ! ) $.$.$.$.$.$.",
"$.$.$.$.$.$.$.$.L R b x g a g a g d p p & # % + 3 u u u u y u u u u u u t = o X + $ & u u u u u u p p a j a n Y #.$.$.$.$.$.$.$.",
"$.$.$.$.$.$.$.#.| K z z j a g s a d p u ; & o o O @ 2 u u u u u u u r # O .     X % u u u u u u u p p p g j x Q { O.$.$.$.$.$.$.",
"$.$.$.$.$.$.$.$.` P z g g f j g s p p p u & # o o o O = 7 u u u u 8 * + X   O o o & u u u u u u u p u p g j k A ` #.$.$.$.$.$.$.",
"$.$.$.$.$.$.@.#.! C k k g a g g g a p u u = & = # @ # @ $ u u u u 0 : & o * & % & - u u u u u u u u u u p g B P K ] $.$.$.$.$.$.",
"$.$.$.$.$.$.$.O.Z c z j s s s a a p u u u 2 # % # - < & < u u u u : ; 4 % # & # ; 3 u u u u u u u u u p p a b C #. .$.$.$.$.$.$.",
"$.$.$.$.$.$.$.X.n k z h k j g a a p u u u 8 3 2 4 u u u u u u u u u u u 3 t - y u u u u u u u u u u u p p a M m I #.$.$.$.$.$.$.",
"$.$.$.$.$.$.$.E M N l f h j s f u u u u u u u u u u u u u y u u u u u u u u u u u p u p u u u u u u u p p k N n ` $.$.$.$.$.$.$.",
"$.$.$.$.$.$.$.) M b x l l f u a p u u u u u u u u u u u u u u u u u u u u u u u u u p u u u u p u u p u d k m b ` $.$.$.$.$.$.$.",
"$.$.$.$.$.$.@.L M x j f h u u u u a u u u u u u u u u u u u u u u u y u u u u u u u u u p u u u u u p u g j k G ( @.$.$.$.$.$.$.",
"$.$.$.$.$.$.$.} b l x k j a a a u u u u u u u u u u u u u u u u u u y u u u u u u p u u u p u p u p p u a h Z Z  .#.$.$.$.$.$.$.",
"$.$.$.$.$.$.$.W S l j u f f u u a p a p u u u u u u u u u u u u u u u u u u u u u u u p u p u p p u p p g j c G O.O.$.$.$.$.$.$.",
"$.$.$.$.$.$.$.^ b j j h f h a u a a p u u u u u y u u u u u u u u u u u u u u u u u p u u p u u u p p p g z K E o.O.$.$.$.$.$.$.",
"$.$.$.$.$.$.$.Y V x j k h f u s a a p p u u u u u u u u u u u u u u u u u u u u u u p d p a p p p p p p g z Z | X.$.$.$.$.$.$.$.",
"$.$.$.$.$.$.$./ z k j s k h u a a u a u u u u u u u u u u u u u u u u u u u u u p p g a p u a a p u p g s m U ) ^ $.$.$.$.$.$.$.",
"$.$.$.$.$.$.$.} N v x g u f s u p p u p p u r 3 > % $ = 2 1 7 & 7 - + @ 7 u 4 u p p h g u p u p p u p p h Z ) ! $.$.$.$.$.$.$.$.",
"$.$.$.$.$.$.$.} T N z s j u a u p u p u u p - 1 * @ . X o @ @ O # X   . X @ % 2 * i a p a a p u u u p p x R H @.$.$.$.$.$.$.$.$.",
"$.$.$.$.$.$.$._ / b x j s u u u u p u p u p t 5 , $ X X o = 1 # $ o .   X + = * 1 w g p u p u u p u p a x m ) ` $.$.$.$.$.$.$.$.",
"$.$.$.$.$.$.$.$.) S H j h h s u p p p a p a a a p u & > & p u u u u 2 ; 1 6 a g a j d p u p u u p a p k B `  .$.$.$.$.$.$.$.$.$.",
"$.$.$.$.$.$.$.$.| H H l j s p p p a s s p u a u p u * % = u p p p 5 % % 9 s a a d j a p p u u p p p j z J ) $.$.$.$.$.$.$.$.$.$.",
"$.$.$.$.$.$.$.$.#.) ^ B x h a p u u p u u a p a p 8 $ = 7 u u u u p * $ 6 g p g h a d p u u u p p p k c E $.$.$.$.$.$.$.$.$.$.$.",
"$.$.$.$.$.$.$.$.@.+.{ D M h s a u a a u p u a u p p p e p p a u p p 9 9 p a s g a d p p p u p u u a c K K ] $.$.$.$.$.$.$.$.$.$.",
"$.$.$.$.$.$.$.$.#.#...! Z B z a a a p p u u p a a u p u u p u u a p a g g h s p a p u u u u a u p z V G / $.$.$.$.$.$.$.$.$.$.$.",
"$.$.$.$.$.$.$.$.$.$.o.K B c v c j a a u p p p p p p u u u u a a p a p a d d a p p p p a p p p a a B P P $.$.$.$.$.$.$.$.$.$.$.$.",
"$.$.$.$.$.$.$.$.$.$.$.| D A G m v x s a p s u p u u u p u u u u a a h d g h g p a a p p p p h h c A H #.$.$.$.$.$.$.$.$.$.$.$.$.",
"$.$.$.$.$.$.$.$.$.$.$.] ( T D c l z f p s d u u u p u a u u u u d a a g a g d j a g p u p a d g G } +...$.$.$.$.$.$.$.$.$.$.$.$.",
"$.$.$.$.$.$.$.$.$.$.$.$.$. .P J C c x p s u p u u u u u a u u a p g d p g a d g a h g a a k k U ] ~ $.$.$.$.$.$.$.$.$.$.$.$.$.$.",
"$.$.$.$.$.$.$.$.$.$.$.$.$.$...) K m z j a g a a a s u u u u u a h g g a d z h a p l j h x z K $.$.@.$.$.$.$.$.$.$.$.$.$.$.$.$.$.",
"$.$.$.$.$.$.$.$.$.$.$.$.$.$.$.] W I ` Z M b c h s f a u d f s f p g a j h k d j k b M C T R  .' O.$.$.$.$.$.$.$.$.$.$.$.$.$.$.$.",
"$.$.$.$.$.$.$.$.$.$.$.$.$.$.$.@.$.` ] I J P B m x z b k j j k k a z k k h l k z Z K I ~ U } $.$.$.$.$.$.$.$.$.$.$.$.$.$.$.$.$.$.",
"$.$.$.$.$.$.$.$.$.$.$.$.$.$.$.$.$.$.O.} R ~ U H J D n S c b M M b x k n m D v B C { o.$.$.$.$.$.$.$.$.$.$.$.$.$.$.$.$.$.$.$.$.$.",
"$.$.$.$.$.$.$.$.$.$.$.$.$.$.$.$.$.$.@.$.o.O.Q ` ( Z Y T G R H C K v M D A F / #.@.$.$.$.$.$.$.$.$.$.$.$.$.$.$.$.$.$.$.$.$.$.$.$.",
"$.$.$.$.$.$.$.$.$.$.$.$.$.$.$.$.$.$.$.$.$.$.` o.} !  .$.#.' ) ] W L U @.W O.#.$.$.$.$.$.$.$.$.$.$.$.$.$.$.$.$.$.$.$.$.$.$.$.$.$.",
"$.$.$.$.$.$.$.$.$.$.$.$.$.$.$.$.$.$.$.$.$.$.$.$.$.$.$.$.$.$.#.X.$.| o.$.$.$.$.$.$.$.$.$.$.$.$.$.$.$.$.$.$.$.$.$.$.$.$.$.$.$.$.$.",
"$.$.$.$.$.$.$.$.$.$.$.$.$.$.$.$.$.$.$.$.$.$.$.$.$.$.$.$.$.$.$.$.$.$.$.$.$.$.$.$.$.$.$.$.$.$.$.$.$.$.$.$.$.$.$.$.$.$.$.$.$.$.$.$.",
"$.$.$.$.$.$.$.$.$.$.$.$.$.$.$.$.$.$.$.$.$.$.$.$.$.$.$.$.$.$.$.$.$.$.$.$.$.$.$.$.$.$.$.$.$.$.$.$.$.$.$.$.$.$.$.$.$.$.$.$.$.$.$.$.",
"$.$.$.$.$.$.$.$.$.$.$.$.$.$.$.$.$.$.$.$.$.$.$.$.$.$.$.$.$.$.$.$.$.$.$.$.$.$.$.$.$.$.$.$.$.$.$.$.$.$.$.$.$.$.$.$.$.$.$.$.$.$.$.$.",
"$.$.$.$.$.$.$.$.$.$.$.$.$.$.$.$.$.$.$.$.$.$.$.$.$.$.$.$.$.$.$.$.$.$.$.$.$.$.$.$.$.$.$.$.$.$.$.$.$.$.$.$.$.$.$.$.$.$.$.$.$.$.$.$.",
"$.$.$.$.$.$.$.$.$.$.$.$.$.$.$.$.$.$.$.$.$.$.$.$.$.$.$.$.$.$.$.$.$.$.$.$.$.$.$.$.$.$.$.$.$.$.$.$.$.$.$.$.$.$.$.$.$.$.$.$.$.$.$.$."
};
