/* XPM */
static char *b8938f14b784446b8dff696c190d91a8fVvSu7YyizZadAoi[] = {
/* columns rows colors chars-per-pixel */
"64 64 89 1 ",
"  c #BC2417",
". c #BD271B",
"X c #BE281C",
"o c #BE2C21",
"O c #BF3126",
"+ c #BF342C",
"@ c #C02A1F",
"# c #C02C21",
"$ c #C03126",
"% c #C0352B",
"& c #C2392E",
"* c #C23B33",
"= c #C13F39",
"- c #C44136",
"; c #C4433B",
": c #C6493E",
"> c #C54641",
", c #C64A44",
"< c #C74D48",
"1 c #C84E49",
"2 c #C95147",
"3 c #C9524D",
"4 c #CB584F",
"5 c #CA5551",
"6 c #CB5C55",
"7 c #CC5F58",
"8 c #CD635B",
"9 c #CF6A63",
"0 c #D16D65",
"q c #D3746D",
"w c #D27570",
"e c #D57B75",
"r c #D6837C",
"t c #D8867E",
"y c #D78680",
"u c #D78A84",
"i c #D88B85",
"p c #DD918A",
"a c #DB9691",
"s c #DC9B96",
"d c #DD9D99",
"f c #DEA29D",
"g c #E1A29E",
"h c #E2A6A1",
"j c #E1ACA7",
"k c #E1AEAB",
"l c #E3AEAA",
"z c #E1B0AC",
"x c #E2B0AC",
"c c #E2B3AE",
"v c #E5B4B0",
"b c #E7B7B4",
"n c #E4B9B5",
"m c #E6B9B6",
"M c #E5BBB8",
"N c #E8BFBC",
"B c #E8C1BE",
"V c #EBC3C1",
"C c #E7CCCA",
"Z c #EACCCB",
"A c #ECD1CF",
"S c #EFD1CE",
"D c #EDD2D0",
"F c #EFD6D3",
"G c #EFD9D7",
"H c #EFDDDB",
"J c #F0D7D3",
"K c #F0D8D4",
"L c #F3DBD8",
"P c #F3DBD9",
"I c #F1DFDD",
"U c #F2E1DF",
"Y c #F4E0DF",
"T c #F2E2E1",
"R c #F4E2E0",
"E c #F4E2E1",
"W c #F3E4E3",
"Q c #F3E8E8",
"! c #F5EBEA",
"~ c #F6EDEC",
"^ c #F6EFEE",
"/ c #F8F3F2",
"( c #FAF2F2",
") c #F8F4F3",
"_ c #FAF8F7",
"` c #F9F7F8",
"' c #FAFAF9",
"] c #FBFCFC",
"[ c #FDFEFE",
/* pixels */
"XXX.XX#X#o.XXXXXX.XX..Xo@#XX.@.@..XXX@.XXXoXXXXXXXXX..XooXo...XX",
"XXX.X#XXXXX..XXXXXXX.XXX.XX..@..XX... X@XXX#XXXXXX....++o..oX.XX",
"XX.X#X.XXXX.X..@XXXX.X..X..X....@XX@XX#XXXXXoXXXXXXOo++-o..XXXXX",
"X.XoX.XXXXXXX....X.XXXXXXXXX.@.@....XoXXXXX XoXXXX+*+,+oXXXXXX.X",
"X.XXXXXX.XX..o*>>&oX.XX.XXXXX...XXXXoX.X.XXXXXoX X+++=oX.XXXXXXX",
".XX..XX.XXX.$33>>5,o.XXX.XXXXX@..XXoXX  .X.X...XXX+**o..XX.XXXXX",
"XX..XXXXX.Xo3,&>,*<;..XXXXXXX.@..XoXX-42+X.XX....o+*+ XXX..XXXXX",
"XXXXXXXXXXX+6&3>;3*<X.X.XXX.XX..XoX:hU)~ZrO.X.XX+++oX.XXXXXXXXXX",
"..XXX.XX.X.&5&1$*>>,oXXXXXXXXXXXoX>Z[[[[['s#...+>*oX.XXXXX.XXX..",
"X@.XX@..XXX$6*>>;>>>oXXXXXXXXXXXXol[[[[[[[)0.o+++#XXX.XXX.XXX.XX",
"@..X.X.@XX.X>5**;2-*.XX..XXXXX@X.<![[[[[[[[cOo;+ooXoXX.XX.XX..@#",
"...@XX...XX.o>33,+oX.XXXXXXXXXX. 8'[[[[[[[[S+>+oXXXXX#XXXXX.X@#X",
"@.@.o..@..XX..ooXX XXXXXX..X@XX. 8_[[[[[[[[D;++ XXX XXoX.X.X@#X.",
"..@.......XXo....XXX.XXX..X#X@XX.;W[[[[[[[[l+oX.XXXX.XXoX..@#X..",
".....oo.oX.XXX..XXX. .XX..XX@ ...@p][[[[[[!9oX.XXXXXX.XXoXX#X..X",
"X@....oooX.XX..oXX@-;-;;;:-;*;*o .*z_[[[[!e#oXXXXXXXXXXX@##X.XXX",
"XXXXX.X#oXXXXXXX.OaRRRRRWRRRRWWj6X %eBKJj6o...XXXXXXXX.XX#oX.XXX",
".XXX.X#@oXXXXXX os'[[[[[[[[[[[[[~x6o #**o oo.XXXXXXXXXXX#oooX.XX",
"@XX.X#@XXoXX...Os_[[[[[[[[[[[[[[[[^c8O.....oXX.XX.XXXXX#X.XXo..X",
".X.X#X.XXXooX.Os_[[[~PPPPPPPW[[[[[[[~n9$.X..oo..XXX.XX#XXX.X@#..",
"XXX@@..XX.XXX$s'[[[J7&&&&&&&d[[[[[[[[[)M,...XoX..XXXX#X.XX..XXX.",
"XX#@X.XXXXX %d'[[[K4.. #...-P[[[[[[[[[[[w.XX.XooX.XX#X...XXX...X",
"X#@ .XXXXX.Od'[[[K4@..@.X..i[[[[[[[[[[[]w. X..XoXXX#XX.XXXXXXXXX",
"#X..XXXXXXOf'[[[K4 .X @.X.-P[[[[[[[[[[[]w..XXX.Xoo#XXXXX.@X.XX.X",
"XXXX.XX.X :G[[[K5..XXXXX.Xu'[[[[[[[[[[[[w.XXXXXXooo.XXXX..XXX.@.",
"XXXX@XXXX. 8H[J3@@X.XXX..*K[[[[[[[[[[[[[q .X..XXoXoXX XX.@X.XXX.",
".XXXXXXXXX..8n4 XX@X.X...y[[[[[[[[[[[[[[w.....X#o.XoXXXX.@..X..X",
"XXXXX @XXX..X$X.XX#X....*K[[[[[[[[[[[[[[q ...X@.X ..oo.XX..@..@#",
"XXXXXXXXX.XXOX..XXXXoX..r'[[[[[[[[[['[[[Nssdddddss, XoX.XXXXX@#X",
"XXX XXXX.XXXXX.XXX..Xo.*J[[[[[[[[[[IV[[[[[[[[[[[[]q .XoX.XXX@@X.",
"XXXXX.XX.XoXXXXXXXX.Xoor'[[[[[[[[[[ph[[[[[[[[[[[['9.XXXoXXXXXX.X",
".XXXX@ XXXXXXXXXXX.XX *A[[[[[[[[[[I:h[[[[[[[[[[[['0 XX XoXX#X.XX",
".XXXXXXooX.XXXXXXXXX..e'[[[[[[[[[[aX4eeeeeeeeeewew-@@.X.X##XXXXX",
"XXXX.XXooX..XXXX.XXX.&A[[[[[[[[[[R: .  @...     @  @XX.XX#oXX..X",
"XXX.XXoXXoX.XXXX..X..e'[[[[[[[[[[s@X..@@X.XX@..@...@X..XXXXoX.XX",
".XX.ooX .ooX.XXXXoo.;C[[[[[[[[[[W, X.@@..@.X.@......XXX.XX.XX.XX",
"X.XXoXX...ooX...o=++u_[[[[[[[[[[sX.X@#X.XXXX..@@..@...XX.XX..X.X",
".XooXXXX....o...X++;m[[[[[[[[[[W<.X@#X.X.XX.X..$*;*#.X.X@XXXXXXX",
".XXXX XXXX..Xo.Xo=+*M[[[[[[[[[[d..X#X.X.XXXX.X=51,33&X.X..X..XX.",
".X.X.XXXXXXXXX.X+-+On[[[WQ[[[['e.@#X.XXXX.XXX%6**>;;1o...XXXXXXX",
"X.X.XXXXXXXX.Xoo++Xon[[[B0Y[[[[Y0XXXXXX.XXX.X,<=3>3;,*..@.XX.XXX",
"XXXXXX@.XXXX..=-*oXob[[[B@8U[[[[R9 .XXXXXXX.X2;>*++3-;.XXXXX@.@.",
"XXX.....XXXXX+*+XXXXm[[[B$.8Y[[[]Q9X.X.XX.X..><*>,+5>+...X@XXX X",
"XXXX@@.X XXo+-+XXXoom[[[B#. 8U[[[]Q9..XXXXXX.&6;=+>,:+..XX..XXXX",
"XXXX..@.XXX*%&X..X@#m[[[B$XXX8I[[[[W0X.XXXX. X*351>OO..XXX.X.XXo",
"X.XX....X+++=XXXX.X#m[[[B$X@o.7H[[[[Q0XXXX.@XXXXOo.X.X.X.XX.XXXX",
"XXXXX...o+*$XXXXXX.@m[[[B#X#X..8I[[[[Z%....XXX XX..X..X....XoXXX",
".X..X@@.O++.... ...@m[[[B$#X.X. 7I[[[K&XX.XXXXXX..XXXX.XXXXooXXX",
"@XX.XXXo&;=-**--**;;B[[[B$@XXXX..h[[[J%XoooX..XXXXXXX..XXooo..XX",
".XXXXXXOaIRRRYYYRRYY([[[V$XXXXX..g[[[J&.ooX XXXXXXXXXXX.XooX..XX",
".XXXXXX.h[[[[[[[[[[[[[[[B$XXXXX .g[[[J&@ooo..XXXXXXXXX.XoooX..XX",
"@XX.XoX.g[[[[[[[[[[[[[[[V##X.XXX.g[[[J&@XXooX.XXXXXX..XooX.oo.X.",
".XXXoXX g[[[[[[[[[[[[[[[V$@XXXXX.g[[[K*...XXo...XXXXX.ooX..Xoo..",
"X.XoXXX.8pppppppppppppppq@XX@XXX.g[[[J&@XXXXXo...XX .oo..XX..o..",
".XXXXXX.X  ...X.  @@. . X..X@#XXXg[[[K+..XX.XooX.X..oo..XX.X....",
"X@XXXXXXX@X..@@..@@X.X..XXX.XXXX.g[[[F* XXXXXXXX..Xoo...XXXXXXXX",
"@XX XXXXXXXX.XXX##X.XXXXXXXX..XX.g[[[J&.XX.XX..X..oo..XXXX....X.",
"XXX@.XXX.XXX@ X##XXXXXXXXXXXXX.XXg[[[K&.XXXX.XXXXoX..XXXX.@.@..@",
"XX.XXXXX@XXXXX@@oXXX.XXXXXXXX.XoXg[[[J&.X.XXXX.Xooo..X.XXXX.XX.X",
"XXXXXXXX.X..X@@XX#XX.X.XXXXX XoXXg[[[J%.XXXXX.XXo.ooXXXXXX.@..XX",
"X.XXXXXXXXXX@@XX.XoXX XXXXX.XoXXXg[[[J&.XXXX..oo..Xoo. .XXXX.XXo",
"XXXXXXXXXXXX@XXXX..ooX.XX..XooX..g[[[K&.XXX..oo.....ooX.XXXXXXoX",
"XXXXXXXXXXX#X XXXX.XooXXX.XXXX...7tttq#XXX Xoo..XXX..XoXXX XXoXX",
"XXX.XXXXXXXX.XXX.XX.XoXX.Xoo...@.     .XX.Xoo..X.XXXXX.oX.XXoX.X"
};