/* XPM */
static char *_dcd79c6e05c4d96e8dc6e36919ea5c92126G3PTVkogb7Uq[] = {
/* columns rows colors chars-per-pixel */
"64 64 15 1 ",
"  c #161B1D",
". c #316F52",
"X c #494949",
"o c #585858",
"O c gray45",
"+ c #C52F00",
"@ c #359066",
"# c #36AC75",
"$ c #28DF89",
"% c #8C8F90",
"& c #AEAEAE",
"* c #F889EC",
"= c #FFB4F7",
"- c #BFCACE",
"; c #FFCFFA",
/* pixels */
"OO###OOoooOOOOOXXO&&&&&%XXOOOOOOOOOOOOO;;=OOOOOXXO&&&&&%ooOOOOOO",
"&&&&#&O%oOO&&&O%XO&&&&-%XOO&&&&&&&&&&&O%=OO&&&O%oO&&&&-%oOO&&&&&",
";&&&#&&%oO&&&&&%XO&&&&-%oO&&&&&&&&&&&&-%.O&&&&&%XO&&&&-%XO&&&&;;",
"==&#&&-%oO&&&&&%XO&&&&-%oO&&&&&&&&#&&&-%.O&&&&-%oO&&&&-%XO&&&==*",
"=$&&&&-%oO&&&&-%oO&&&&-%oO&&&&@&#&&&&&-%.O&&&&-%oO&&&--%XO&&&&==",
"$--      O&&&&-%oO%&--%%oO&&--&&&--&--%%.O&&&&&%XO%&--%      ---",
"%%%%               %%%%Xoo%%%%%#%###%%%..O&&&&              %%%%",
"Xooooo                                                    XooXXX",
"ooOOOOO                                                  OOOOOoX",
"XOO&&&O%X++++++++++++                       +++++++++++#&#&&&&O%",
"XO&&&&&%XO&&++++++++++++++++++++++++++++++++++++++++&##&&&&&&&&%",
"XO&&&&-%X;;;&&-++++++++++++++++++++++++++++++++++O&&&&&&&&$&&&&%",
"XO&&&&&%X;*;=&-%++++++++&&&&&++++++&&&$%++++++++oO&&&&&&&&&$$--%",
".O&&&&-%X=*;=&%%++++++++-----++++++&&&$%++++++++oO%&&&&----$#-%%",
".O&&&&-%XX===%%.++++++++%%%%++++++++&&&%++++++++oX%%%%%%%%%%##%.",
".O&&&&&%XXXXX++++++++++++++++++++++++++++++++++++++XoXXoXoooo...",
".O&&&&&%XXOOO++++++++++++++++++++++++++++++++++++++OOOOXoXOOOOO.",
".O&&&&&%XOO&=++++++++++++++++++++++++++++++++++++++;;&O%oOO&&&O%",
".O&&&&&%XO&=*++++++++++++++++++++++++++++++++++++++**=&%XO&&&&&%",
".O&&&&-%XO&&;++++++++++++++++++++++++++++++++++++++==&#%oO&&&&&%",
"XO&&&&-%oO&&&&&&++++++++oO&&&&-%XO&&&--%++++++++&&&@&@#%oO&&&&&%",
"oO%&--%%oO%&-&--++++++++oO&&&&&%XO%&--%%++++++++-&--@@%%XO&&&&&%",
"oX%%%%%XoX%%%%%%++++++++XO&&&&@%oX%%%%%X++++++++%%%%@%%XX;&&&&&%",
"ooXXoooXooXXoXoX++++++++oO@&&&@%oooXXXXo++++++++...@@XXX;;=&&&&%",
"XXOOOOOOOOOOOOOX++++++++XO&@&@-%oXOOOOOO++++++++..OOOOOX;*=&&&-%",
"XOO&&&&&&&&&&&O%++++++++XO&@&@&%oOO&&;;;++++++++.OO&&&O%;*=&&&-%",
"XO&&&&&&&&&&&&-%++++++++oO&@@&-%oO&&&=*;++++++++.O&&&&&%X=&&&&-%",
"XO&&&&&&&&&&&&-%++++++++oO&&&@-%oO&&&&==++++++++.O&&&&&%XO&&&&-%",
"XO&&&&&&&&&&&@-%++++++++oO&&&&-%oO&&&@@&++++++++;;&&&&-%oO&&&--%",
"XO%-------&-&@@%++++++++oO%&-@%%XO%&-@@&++++++++*==&&&-%oO%&&-%%",
"XX%%%%%%%%%%@%%X++++++++oX%%@%%XoX%%%%%@++++++++==&&&&&%XX%%%%%X",
"oooooXXoXoooooX@++++++++XoX@XXXXooXXXooo++++++++XO&&&&-%oXXoooXo",
"OOOOOOOXXoOOOOOo++++++++XX@OOOOOOOOOOOOo++++++++oO&&&&-%XXOOOOOO",
"&&&&&-O%XOO&&&O%++++++++@OO&&&&&&&&&&-O%++++++++oO&&&&-%XOO&&&&&",
"&&&&&&-%XO&&@&-#++++++++.O&&&&&&&&&&&--%++++++++oO&&&&-%oO&&&&&&",
"&&&&&&-%XO&&@##%++++++++.O&&&&&&&&&&&&-%++++++++oO&&&&-%oO&&&&&&",
"&&&&&&-%XO&&&&&%++++++++.O&&&&&&&@&&&&-%++++++++XO&&&--%oO&&&&&&",
"--&-&-%%XO@&&&-%++++++++.O%&--@$@&---&%%++++++++oO%&&-%%XO%&----",
"%-%%%%%XXO&@&#&%++++++++..%%%@%%%%%%%%%o++++++++XX%%%%%Xoo%%%%%%",
"ooooXXXXXO&@#&-%++++++++;...@@@XoooXoooo++++++++@ooXXXXXooooXooX",
"ooOOOOOXXO@&&&-%++++++++==OO@OOXoXOOOOOo++++++++@XOOOOOOOOOOOOOX",
"oOO&&&OOXO&&&&-%++++++++=&&&@@O%XOO&&&O%++++++++@OO&&&;&&&&&&&O%",
"oO&&&&&%XO&&&&-%++++++++&&&&&@@%XO&&&&&%++++++++XO&&&;;;&&&&@@&%",
"XO&&&&-%XO&&&&-%++++++++&&&&@&-%XO&&&&-%++++++++@O&&&;*;&&&@&&&%",
"XO&&&&&%XO&&&--%++++++++&&@&&&-%XO&&&&-%++++++++XO&&&;*;&@&@&--%",
"XO&&&&&%oO%---%%++++++++-----&%%oO&&&&-%++++++++XO%&-&;--&@---%%",
"oO&&&&-%XX%%%%%X++++++++%%%%%%%ooO&&&&&%++++++++oX%%%%%%%%@%%%%X",
"oO&&&&-%oXXXXXXX++++++++ooXXXXoXoO&&&@&@++++++++XooooooX.....XXo",
"oO&&&&-%oXOOOOOO++++++++ooOOOOOXoO&&&&@%++++++++OOOOOOO...OOOOOX",
"oO&&&&-%oOO&&&&&++++++++oOO&&&O%oO&&&&-%++++++++&&&&&&O%.OO&&&O%",
"oO&&&&-%XO&&&&&&        oO&&&&&%XO&&&&&%        &&&&&&&%.O&&&&&%",
"XO&&&&-%oO&&&&&&        oO&&&&-%XO&&&&&%        &&&&&&-%.O&&&&&%",
"XO&&&--%oO&&&&&&        oO&&&&-%oO&&&&-%        &&&&&&-%.O&&&&&%",
"oO%&&-%%oO%&----        XO&&@&-%oO%-&-%%        ---&--%%.O&&&&&%",
"oX%%%%%XoX%%%%%%        XO&&&&-%XX%%%%%X        %%%%%%%X.O&&&&&%",
"ooXooXXXXXXXXXXX        XO&&&&-%ooXXXXXo        XXXoooXX.O&&&&@%",
"XXOOOOOOOOOOOOOo        XO&&&&-%oXOOOOOO        XoOOOOOX.O&@&&@%",
".OO&&&&&&&&&&&O          O&&&@-@oOO&&&&          OO&&&O%XO&@&#&%",
".O&&&&&&&&&&&&            &&&&-@oO&&&&            &&&&-%XO&###&%",
".O&&&&&&&&&&&--%XO&&&&&%oO&&&--%oO&&&&&&&&&&&&-%XO&&&&-%XO&&&#&%",
".O&&&&&&&$##&--%XO&&&&-%XO&&&--%XO&&&&&&&&&&&&-%XO&&&&-%XO&&&#@%",
".O%--&&##&&---%%XO&&&&-%oO%---%%XO%-----;-&-&-%%XO&&&&-%XO%&&&%@",
"..%%%%#%%%%%%%%XoO&&&&-%oX%%%%%XXX%%%%%;;=%%%%%XoO&&&&-%XX%%%%%.",
"......#XXoooooXoXO&&&&-%oooooooXooooXXX;;=XooooooO&&&&-%XX.X...."
};
