/* XPM */
static char *_bb5ac7faead4ccafa8d45bf42c7ed0eA0oK2XateD9lgDlz[] = {
/* columns rows colors chars-per-pixel */
"64 64 256 2 ",
"   c black",
".  c #010101",
"X  c #020202",
"o  c gray1",
"O  c #040404",
"+  c gray2",
"@  c #060606",
"#  c #070707",
"$  c gray3",
"%  c #090909",
"&  c gray4",
"*  c #0B0B0B",
"=  c #0C0C0C",
"-  c gray5",
";  c #0E0E0E",
":  c gray6",
">  c #101010",
",  c #111111",
"<  c gray7",
"1  c #131313",
"2  c gray8",
"3  c #151515",
"4  c #161616",
"5  c gray9",
"6  c #181818",
"7  c #191919",
"8  c gray10",
"9  c #1B1B1B",
"0  c gray11",
"q  c #1D1D1D",
"w  c #1E1E1E",
"e  c gray12",
"r  c #202020",
"t  c gray13",
"y  c #222222",
"u  c #232323",
"i  c gray14",
"p  c #252525",
"a  c gray15",
"s  c #272727",
"d  c #282828",
"f  c gray16",
"g  c #2A2A2A",
"h  c gray17",
"j  c #2C2C2C",
"k  c #2D2D2D",
"l  c gray18",
"z  c #2F2F2F",
"x  c gray19",
"c  c #313131",
"v  c #323232",
"b  c gray20",
"n  c #343434",
"m  c #353535",
"M  c gray21",
"N  c #373737",
"B  c gray22",
"V  c #393939",
"C  c #3A3A3A",
"Z  c gray23",
"A  c #3C3C3C",
"S  c gray24",
"D  c #3E3E3E",
"F  c #3F3F3F",
"G  c gray25",
"H  c #414141",
"J  c gray26",
"K  c #434343",
"L  c #444444",
"P  c gray27",
"I  c #464646",
"U  c gray28",
"Y  c #484848",
"T  c #494949",
"R  c gray29",
"E  c #4B4B4B",
"W  c #4C4C4C",
"Q  c gray30",
"!  c #4E4E4E",
"~  c gray31",
"^  c #505050",
"/  c #515151",
"(  c gray32",
")  c #535353",
"_  c gray33",
"`  c #555555",
"'  c #565656",
"]  c gray34",
"[  c #585858",
"{  c gray35",
"}  c #5A5A5A",
"|  c #5B5B5B",
" . c gray36",
".. c #5D5D5D",
"X. c gray37",
"o. c #5F5F5F",
"O. c #606060",
"+. c gray38",
"@. c #626262",
"#. c gray39",
"$. c #646464",
"%. c #656565",
"&. c gray40",
"*. c #676767",
"=. c #686868",
"-. c DimGray",
";. c #6A6A6A",
":. c gray42",
">. c #6C6C6C",
",. c #6D6D6D",
"<. c gray43",
"1. c #6F6F6F",
"2. c gray44",
"3. c #717171",
"4. c #727272",
"5. c gray45",
"6. c #747474",
"7. c gray46",
"8. c #767676",
"9. c #777777",
"0. c gray47",
"q. c #797979",
"w. c gray48",
"e. c #7B7B7B",
"r. c #7C7C7C",
"t. c gray49",
"y. c #7E7E7E",
"u. c gray50",
"i. c #808080",
"p. c #818181",
"a. c gray51",
"s. c #838383",
"d. c #848484",
"f. c gray52",
"g. c #868686",
"h. c gray53",
"j. c #888888",
"k. c #898989",
"l. c gray54",
"z. c #8B8B8B",
"x. c gray55",
"c. c #8D8D8D",
"v. c #8E8E8E",
"b. c gray56",
"n. c #909090",
"m. c gray57",
"M. c #929292",
"N. c #939393",
"B. c gray58",
"V. c #959595",
"C. c gray59",
"Z. c #979797",
"A. c #989898",
"S. c gray60",
"D. c #9A9A9A",
"F. c #9B9B9B",
"G. c gray61",
"H. c #9D9D9D",
"J. c gray62",
"K. c #9F9F9F",
"L. c #A0A0A0",
"P. c gray63",
"I. c #A2A2A2",
"U. c gray64",
"Y. c #A4A4A4",
"T. c #A5A5A5",
"R. c gray65",
"E. c #A7A7A7",
"W. c gray66",
"Q. c #A9A9A9",
"!. c #AAAAAA",
"~. c gray67",
"^. c #ACACAC",
"/. c gray68",
"(. c #AEAEAE",
"). c #AFAFAF",
"_. c gray69",
"`. c #B1B1B1",
"'. c #B2B2B2",
"]. c gray70",
"[. c #B4B4B4",
"{. c gray71",
"}. c #B6B6B6",
"|. c #B7B7B7",
" X c gray72",
".X c #B9B9B9",
"XX c gray73",
"oX c #BBBBBB",
"OX c #BCBCBC",
"+X c gray74",
"@X c gray",
"#X c gray75",
"$X c #C0C0C0",
"%X c #C1C1C1",
"&X c gray76",
"*X c #C3C3C3",
"=X c gray77",
"-X c #C5C5C5",
";X c #C6C6C6",
":X c gray78",
">X c #C8C8C8",
",X c gray79",
"<X c #CACACA",
"1X c #CBCBCB",
"2X c gray80",
"3X c #CDCDCD",
"4X c #CECECE",
"5X c gray81",
"6X c #D0D0D0",
"7X c gray82",
"8X c #D2D2D2",
"9X c LightGray",
"0X c gray83",
"qX c #D5D5D5",
"wX c gray84",
"eX c #D7D7D7",
"rX c #D8D8D8",
"tX c gray85",
"yX c #DADADA",
"uX c gray86",
"iX c gainsboro",
"pX c #DDDDDD",
"aX c gray87",
"sX c #DFDFDF",
"dX c gray88",
"fX c #E1E1E1",
"gX c #E2E2E2",
"hX c gray89",
"jX c #E4E4E4",
"kX c gray90",
"lX c #E6E6E6",
"zX c #E7E7E7",
"xX c gray91",
"cX c #E9E9E9",
"vX c #EAEAEA",
"bX c gray92",
"nX c #ECECEC",
"mX c gray93",
"MX c #EEEEEE",
"NX c #EFEFEF",
"BX c gray94",
"VX c #F1F1F1",
"CX c gray95",
"ZX c #F3F3F3",
"AX c #F4F4F4",
"SX c gray96",
"DX c #F6F6F6",
"FX c gray97",
"GX c #F8F8F8",
"HX c #F9F9F9",
"JX c gray98",
"KX c #FBFBFB",
"LX c gray99",
"PX c #FDFDFD",
"IX c #FEFEFE",
"UX c white",
/* pixels */
"].^.I.U.U.U.U.U.U.Y.OX(.L.W.^.q.Y.I.I.P.I.U.Y.L.Y.U.U.U.I.P.XXM.H.I.P.I.I.P.Y.Z.D.U.P.P.P.E.Y.m.U.Y.I.P.I.I.P.U.Y.P.I.I.U.R.P.U.",
"J.U.U.U.I.U.U.U.U.U.L.L.P.P.I.y.D.I.U.U.P.P.I.I.I.U.U.I.U.I.J.D.K.I.P.P.P.P.R.h.M.T.P.P.P.P.R.M.Z.W.L.I.I.P.I.P.P.I.P.I.I.P.P.I.",
"U.U.U.I.P.P.U.Y.U.Y.I.P.I.P.Y.g.Y.U.U.U.U.I.P.I.P.I.U.U.Y.U.T.V.F.U.P.I.I.P.Y.H.b.T.P.I.P.P.U.U.v.P.I.P.I.P.I.I.I.P.I.P.P.I.I.I.",
"P.I.P.P.P.P.I.U.U.Y.U.P.P.I.P.r.P.U.I.I.U.U.I.P.I.L.P.Y.U.P.R.b.A.Y.P.I.P.P.U.F.D.U.P.P.U.I.P.L.S.U.P.I.I.P.P.P.P.P.I.I.I.I.P.I.",
"U.I.P.I.P.P.I.U.U.U.P.I.P.P.I.V.U.I.P.P.P.I.I.P.P.I.U.I.P.P.T.b.Z.Y.P.P.P.P.I.L.L.P.P.U.G.C.U.K.A.U.P.I.P.P.I.P.I.I.P.I.I.I.I.P.",
"P.P.I.I.I.I.I.Y.U.P.I.I.P.U.G.D.I.P.P.I.P.P.I.P.I.P.P.P.P.P.T.v.C.Y.P.P.P.P.I.P.I.P.P.I.P.U.U.P.L.I.P.P.I.I.P.P.P.P.I.P.P.I.I.I.",
"I.P.P.I.I.P.I.U.P.P.L.P.L.T.p.u.T.L.I.P.P.P.P.P.P.P.P.I.P.P.R.k.N.T.P.P.I.P.I.J.G.P.P.L.U.L.J.D.C.Y.P.I.P.P.I.P.I.I.P.P.P.I.P.I.",
"Y.P.P.P.P.I.U.P.I.P.U.U.U.P._.B.K.P.I.I.P.P.P.P.P.P.P.I.P.P.E.b.A.Y.P.P.P.I.E.S.d.Y.P.P.I.D.A.d.k.R.L.I.I.P.P.I.I.P.I.I.I.I.P.I.",
"U.g.z.Y.U.Y.I.P.P.P.P.U.Y.Y.Y.p.L.P.I.I.I.I.I.I.I.I.I.I.P.P.U.G.K.I.P.I.U.G.C.B.P.U.U.E.U.T.E.U.S.U.P.P.P.P.I.P.P.I.P.I.I.P.I.U.",
"P.).~.I.Y.I.P.I.P.P.I.P.U.Y.I.s.U.I.I.I.I.I.I.I.P.I.Y.U.I.K.P.J.P.I.P.P.I.I.H.y.C.Y.P.P.P.P.P.L.P.I.P.P.P.P.P.I.P.I.I.I.P.U.G.u.",
"U.I.I.Y.U.P.I.I.I.I.L.K.I.Y.Y.d.L.U.P.P.P.P.I.U.I.I.U.Y.I.K.m.b.L.I.P.P.P.P.!.P.D.U.I.I.I.I.I.K.Z.I.I.P.I.L.L.I.P.P.P.P.P.Y.M.K.",
"U.U.U.Y.U.I.I.P.P.I.U.U.U.T.J.0.K.U.P.P.I.I.P.I.I.U.U.Y.Y.U.L.S.K.I.P.I.I.I.L.L.L.I.I.P.P.P.I.K.G.I.P.P.P.I.I.P.I.P.L.I.I.L.A.].",
"I.U.U.I.I.I.P.I.I.P.L.U.U.U.K.y.J.I.P.P.P.P.P.P.I.Y.U.P.Y.P.n.p.I.P.P.P.P.P.I.L.L.I.P.I.P.P.I.L.L.I.P.P.I.P.P.I.P.I.I.P.P.I.E.K.",
"U.I.Y.Y.U.P.P.P.U.x.F.U.L.W.N.<.U.L.P.I.U.I.P.I.P.P.E.(.S.J.U.p.P.I.P.P.P.I.I.P.L.I.L.P.P.I.I.K.G.I.P.I.I.P.I.P.P.I.P.P.I.I.I.U.",
"F.Y.P.J.I.P.P.Y.c.5.L.I.I.G.O.L G.I.J.L.G.P.I.L.L.L.m.;.=.&.7.e.I.L.P.P.P.F.R.l.z.R.K.I.P.K.R.M.x.R.P.P.P.P.K.P.I.P.I.I.I.P.I.I.",
"| ..3.p.N.I.L.I.m.5.D.J.f.,.} ( 1.M.P.p.=.9.m.J.D.l.$.&.>.O.{ F s.g.S.I.I.d.k.%.-.p.j.K.J.T.F./ d.W.L.P.P.I.P.P.P.P.I.P.P.I.P.P.",
"oXXX}.).Y.I.I.U.Y.Y.T.U.P.T.W.Q.Y.I.Y.U.Z.J.T.I.~.^.E.(..XA.~.+.b.|.XX`.(.Q.P.U.U.I.K.P.~..XoXn.k.E.P.P.I.I.I.P.I.P.I.P.P.I.I.I.",
"P.Y.L.J.P.P.P.P.P.P.P.P.I.P.L.L.I.I.P.P.G.L.P.P.L.L.L.J.P.G.L.| p.=X!.J.L.P.Y.U.Y.W.E.U.I.J.P.G.v.T.P.P.I.P.P.I.P.I.P.I.I.P.I.I.",
"I.P.I.I.I.I.I.I.I.P.P.I.I.P.P.I.P.I.I.P.Y.I.P.P.I.I.I.I.P.I.Y.} 8.).K.I.I.P.I.U.U.U.U.U.U.U.T.m.n.T.P.P.P.P.P.P.I.P.I.K.P.I.P.P.",
"P.I.P.P.I.P.I.I.P.I.P.P.P.P.P.I.I.P.P.I.P.P.I.I.I.P.P.I.P.P.U.-.7.R.P.I.I.I.P.I.U.U.U.U.I.I.Y.Z.m.T.P.P.I.I.I.P.I.P.P.U.I.P.I.P.",
"L.I.I.I.I.P.P.I.P.I.P.P.P.P.P.P.I.P.L.P.I.I.P.L.I.P.P.I.P.P.E.V.x.T.P.I.U.I.P.P.I.I.P.I.Y.U.T.G.j.T.P.I.P.I.I.I.P.I.I.P.I.I.P.Y.",
"I.I.P.P.P.I.P.I.I.P.P.P.I.P.P.P.P.I.I.I.L.P.I.I.I.I.P.I.P.P.Y.S.G.U.I.U.U.I.P.I.I.P.P.I.Y.Y.Y.P.y.T.P.P.P.P.P.P.P.P.P.I.P.P.I.B.",
"P.I.I.I.P.I.P.I.P.I.P.P.I.P.P.I.I.P.P.P.P.P.I.P.P.I.I.P.I.P.I.h.K.U.I.I.I.I.P.P.P.I.P.U.Y.U.I.L.4.D.I.L.P.P.I.P.I.I.I.P.P.P.U.M.",
"P.P.I.I.I.P.P.I.I.P.P.I.P.I.I.P.P.I.I.P.I.I.I.P.P.I.P.P.I.P.U.S.J.Y.U.P.I.I.I.L.P.I.P.U.U.I.I.L.2.S.K.K.P.I.I.I.I.I.I.I.I.P.T.N.",
"P.I.P.P.P.I.I.P.I.I.I.P.I.P.I.P.P.P.P.I.P.P.P.P.P.I.P.P.I.P.U.M.K.Y.U.I.I.P.P.I.I.I.I.I.P.P.I.K.| V.C.S.Y.K.L.P.P.P.I.P.P.P.I.i.",
"I.P.P.I.P.P.P.I.P.I.I.I.I.I.P.I.P.P.I.I.I.I.P.P.P.P.I.I.P.P.R.p.v.R.P.I.P.P.I.P.P.I.P.P.I.P.U.L.t.f.J.p.l.I.I.I.P.P.P.I.P.I.L.L.",
"P.I.P.P.I.I.I.P.I.I.I.I.I.I.P.I.I.P.P.I.P.I.P.I.I.P.P.P.I.P.E.v.u.E.P.I.I.I.I.P.P.P.P.I.P.P.E.c.Z.Q.!.D.c.T.I.I.I.I.I.I.P.P.Y.T.",
"L.I.P.P.P.I.P.I.I.I.I.I.I.P.I.P.P.P.I.I.P.I.I.P.P.I.P.I.I.P.Y.n.A.U.I.P.P.I.I.P.P.I.P.F.I.P.T.l.w.T.P._._.I.I.Y.I.P.I.I.I.P.P.J.",
"I.P.I.P.I.I.I.I.P.P.P.I.P.P.I.P.P.I.I.I.P.P.P.P.P.P.I.P.P.P.U.a.L.I.I.P.P.I.P.I.I.P.I.v.J.L.Y.v.6.P.I.I.U.U.I.Y.I.I.I.P.P.P.L.T.",
"P.P.P.P.P.P.P.P.P.L.P.L.P.I.P.I.P.I.P.L.P.L.P.I.L.L.K.L.L.K.T.s.G.I.L.P.I.I.P.L.P.L.U.z.F.L.Y.z.N.R.I.U.U.U.P.U.U.L.P.I.I.L.Y.P.",
"Y.I.I.I.I.U.U.E.E.W.R.W.R.I.U.U.I.I.L.K.T.Q.R.L.E.Q.E.R.E.~.S.&.B.~.R.U.K.P.T.E.T.W.G.e.K.U.T.d.s./.U.U.U.U.T.Y.J.I.U.I.U.W.K.3.",
"N.K.K.J.K.F.F.g.$.*.<.a.d.z.A.G.P.K.P.U.N.-.] W +.6.9.e.d.2.W x W 3.h.G.P.Y.m.t.v.q.( X.a.H.K...G p.S.P.P.D.9.V.P.K.K.L.L.m.#.~ ",
"Y./.OX.X|.^.).`.].].).{.~.XX^.h.Y.I.P.C.!.H.N.V.v.b.M.M.C.b.P.U.L.D.F.I.Y.T.H.Z.J.S.C.H.Y.U.).Y.C.P.I.P.I.Q.K.H.^.'.{.{.^.H.D.E.",
"T.P.Y.Y.I.R.W./.(./._.'.^.`.U.v.P.I.I.I.T.~.R.T.E.R.R.T.R.E.n.G.W.R.Y.I.P.P.U.T.U.Y.T.U.I.I.P.W.W.I.P.P.I.I.T.Y.I.U.U.U.I.U.U.U.",
"P.I.P.P.U.U.I.P.P.P.T.P.L.T.c.x.E.L.P.U.I.L.P.P.P.P.P.P.L.T.G.w.L.I.P.P.I.I.P.P.P.P.P.P.I.I.I.P.L.I.P.P.P.P.P.P.I.I.I.I.I.U.I.P.",
"I.P.P.I.Y.Y.U.U.U.I.I.I.I.E.v.N.T.P.P.P.I.I.P.P.I.I.P.P.I.L.!.K.J.I.P.I.P.I.P.I.P.P.I.P.I.I.P.P.I.P.I.I.I.I.I.I.P.P.P.P.I.I.I.I.",
"I.P.P.I.U.Y.U.U.U.U.U.U.P.Y.D.M.Y.P.P.P.P.P.I.I.P.P.P.P.P.I.P.K.L.I.P.P.P.P.P.P.I.P.P.I.I.P.I.I.P.I.P.P.I.P.P.I.P.I.I.I.I.I.P.P.",
"P.P.I.P.I.I.U.U.U.U.U.U.P.I.R.H.I.P.I.P.P.P.P.I.P.P.P.P.P.P.I.H.K.P.P.I.P.P.P.P.P.P.I.P.P.P.P.I.L.J.L.P.P.I.P.P.P.P.P.P.P.P.P.P.",
"P.P.P.P.P.P.P.P.P.I.I.P.I.I.U.I.U.P.P.P.I.I.Y.I.Y.I.P.I.I.P.Y.L.Y.T.U.I.I.I.I.I.I.I.I.U.Y.T.T.K.E.Y.L.K.I.I.I.I.I.I.I.I.I.U.U.Y.",
"I.P.P.P.I.I.I.I.U.U.I.P.U.I.L.k.J.P.P.P.K.S.D.J.A.J.P.K.K.L.H.q.y.n.J.L.L.L.L.L.L.L.L.G.V.n.n.N.e.l.K.K.H.K.J.L.P.L.L.P.K.S.D.Z.",
"I.P.P.I.P.P.T.Y.U.I.I.I.I.R.S.a.T.R.E.R.Y.R.!.V.C.Q.E.R.P.R.G.c.m.V.K.I.I.L.P.I.I.I.I.K.Z.V.C.D.b.A.~..X[.Q.^.z.k.Y.I.I.E.I.K.D.",
"I.I.I.P.P.T.b.G.U.U.U.I.P.T.b.x.Q.L.I.I.I.U./.'./.Y.I.U.U.I.Y.E.E.T.U.I.I.L.U.I.I.P.I.T.E.R.W.E.!.Q.E././.Y.!.K.B.Y.I.I.T.E.Y.Y.",
"I.P.I.I.U.L.z.P.U.U.I.P.P.U.A.x.T.P.P.P.P.P.J.G.L.L.P.P.P.P.P.P.K.P.P.P.P.P.P.P.P.P.I.P.L.P.H.L.L.L.L.K.K.P.P.E.V.I.P.P.P.L.P.P.",
"I.I.I.I.Y.A.A.Y.P.I.P.P.P.T.M.j.E.P.I.I.I.P.U.m.L.I.P.P.I.P.I.P.I.P.P.P.I.I.P.I.P.P.P.I.P.I.L.P.I.I.I.I.I.P.Y.B.t.T.P.P.I.I.P.I.",
"I.U.I.P.P.T.Y.P.Y.I.P.P.P.T.v.p.R.P.P.P.I.L.W.0.B.Y.P.P.P.I.I.I.P.P.P.P.P.P.I.P.I.P.I.P.P.P.I.I.P.I.I.P.I.P.I.P.i.I.P.P.I.I.I.P.",
"U.I.P.P.U.P.I.U.I.P.I.I.P.T.N.k.R.P.P.I.I.L.L.0.V.R.P.I.I.I.I.P.P.I.I.I.P.P.I.P.I.I.P.P.P.I.P.P.I.P.P.I.I.P.U.J.s.I.P.P.P.P.P.I.",
"P.I.R.Y.v.R.U.Q.Y.I.P.I.Y.~.l.c.E.I.P.P.I.P.W.$.;.Y.P.P.P.P.P.P.P.I.P.P.I.I.P.P.P.I.P.P.P.I.P.I.I.I.I.I.P.I.P.T.c.K.I.P.P.P.P.P.",
"z.I.J.$.) n.A.i.M.H.F.F.C.u./ w.R.L.P.P.L.L.G.` X.H.U.P.I.P.P.I.I.I.P.I.P.P.P.I.P.P.I.P.I.P.I.I.I.I.P.P.I.P.I.P.i.L.I.P.P.I.P.P.",
"L.K.K.H.H.D.I.m.F.{.].T.G.E.l.3.H.K.T.T.P.P.n.f.'.E.L.I.P.I.I.P.P.P.P.P.P.I.I.P.I.P.P.I.P.I.P.P.I.P.I.P.P.I.P.I.v.I.P.P.P.P.U.Y.",
"Q.U.).+X X}.|.[._.].+X;X=X-X^.N.Q.P.U.I.Y.Y.)._.T.K.I.I.I.I.P.I.L.P.I.I.P.P.P.P.P.P.P.I.I.I.P.P.I.P.P.I.I.P.P.I.A.I.P.I.I.I.A.B.",
"I.U.J.F.K.K.K.L.L.L.F.,.r.L.Z.C.I.P.P.P.P.L.P.f.J.U.I.P.I.P.P.I.L.I.P.I.I.P.I.P.P.I.I.I.P.P.I.P.P.I.I.P.I.P.P.L.A.I.P.P.P.U.P.G.",
"U.Y.Y.I.P.Y.Y.Y.Y.U.Q.E.z.I.G.l.T.P.P.P.P.P.U.B.P.P.P.P.P.I.I.L.L.I.I.L.P.I.I.I.I.P.I.I.P.P.I.I.P.P.I.P.P.P.P.L.A.I.P.P.P.P.U.W.",
"Y.U.I.I.L.I.Y.U.Y.Y.I..X.XP.U.F.I.P.P.P.P.I.L.h.I.P.I.P.I.P.I.K.P.P.P.I.P.I.P.I.P.I.I.P.I.P.P.I.I.I.P.I.I.I.I.P.Z.I.P.P.I.P.P.L.",
"U.I.I.P.I.P.P.P.I.I.U.K.I.Y.Y.Y.P.P.P.I.P.I.K.d.U.P.I.P.P.L.L.L.P.P.P.I.I.P.I.P.P.I.P.P.I.P.L.I.P.P.P.P.I.I.I.L.A.I.P.P.I.P.P.I.",
"I.P.I.I.P.P.P.P.K.P.I.U.U.Y.L.V.U.P.I.I.I.P.R.N.K.U.Y.T.R.!.T.Q.E.T.U.I.I.I.I.I.I.P.I.I.P.I.U.P.I.I.I.I.I.I.Y.P.x.Y.I.P.I.I.U.I.",
"G.P.P.L.P.P.P.I.I.I.I.U.U.I.L.b.U.P.P.I.P.K.Q.:.e.R.Z.N.b.5./ 5.h.m.F.P.K.K.J.J.J.I.P.P.P.P.L.P.P.P.P.L.L.K.I.7.:.R.F.P.P.L.S.L.",
"R.U.I.U.U.I.P.P.P.I.K.U.I.I.G.Z.U.P.P.I.U.Y.R.m.g.S.u.4.1.1.9.7.3.7.d.N.!.W.(.(./.J.I.Y.P.U.Y.I.U.Y.L.D.H.K.S.u.y.K.C.T.Y.J.l.M.",
"P.I.Y.U.P.K.I.P.I.P.I.I.P.T.V.h.T.P.I.L.D.B.S.n._.~.!.~.^._.(.(./.^.W.!.(./.[. X<X).L.T.U.Y.T.L.U.Y.Y.T.R.W.(.|.(.^.E.P.Y.T.E.E.",
"I.I.I.P.I.U.P.P.I.P.P.U.U.T.F.c.Y.P.I.J.U.Z.7.t.K.K.K.K.K.J.K.K.K.K.P.P.L.P.J.J.J.Y.I.P.I.P.L.U.P.L.P.P.L.K.K.F.M.L.L.P.P.H.P.L.",
"P.I.P.P.P.P.I.P.P.I.Y.U.U.T.D.m.Y.P.P.Y.R.`.*X/.P.I.I.I.I.I.I.P.I.I.I.I.I.I.I.I.I.P.P.P.P.I.I.P.I.I.P.P.I.I.I.I.A.I.I.I.I.I.P.I.",
"I.I.I.I.I.I.P.I.P.I.U.U.U.E.Z.l.T.P.I.P.L.K.R.L.P.I.I.I.I.P.I.P.P.P.P.P.P.P.I.I.I.I.P.I.P.P.P.P.P.P.I.P.I.I.I.P.Z.I.P.I.I.U.I.P.",
"I.I.I.P.P.I.I.P.I.I.U.U.I.R.B.k.R.P.I.P.I.P.I.N.S.K.H.K.P.P.P.P.P.I.I.I.P.I.P.I.I.P.P.P.P.I.P.P.P.P.I.I.P.I.I.P.j.P.P.I.P.P.P.I.",
"Y.Y.U.I.P.P.P.P.I.P.U.U.I.E.b.s.E.L.I.I.I.I.P.P.T.Y.P.P.I.I.I.I.I.P.P.I.P.P.I.I.P.I.I.I.P.L.P.I.I.P.P.P.P.P.P.I.c.P.I.P.P.I.P.P.",
"I.U.Y.Y.Y.I.I.P.U.I.P.Y.P.T.9.3.Q.L.I.P.I.P.I.V.P.I.I.U.I.I.I.I.I.I.I.P.P.P.I.I.I.P.I.I.I.I.P.P.I.I.P.I.I.P.I.L.f.P.P.I.I.I.I.I."
};