/* XPM */
static char *_9f585abfee64bbcb45f70938d5a1d56HpZTyNSmAj8Heayl[] = {
/* columns rows colors chars-per-pixel */
"64 64 244 2 ",
"   c #010101",
".  c #0B0404",
"X  c #050808",
"o  c #170A08",
"O  c #110E13",
"+  c #091416",
"@  c #191719",
"#  c #220C08",
"$  c #23120B",
"%  c #28150B",
"&  c #281A19",
"*  c #331A15",
"=  c #0C2417",
"-  c #172519",
";  c #17341F",
":  c #32241E",
">  c #0C1823",
",  c #1A1D24",
"<  c #1C252A",
"1  c #1C2A3A",
"2  c #262427",
"3  c #372727",
"4  c #272C35",
"5  c #342D32",
"6  c #273631",
"7  c #393738",
"8  c #4A2D1B",
"9  c #422C27",
"0  c #4A332B",
"q  c #593629",
"w  c #5D3A2C",
"e  c #4A3A37",
"r  c #583635",
"t  c #553A33",
"y  c #5C3B33",
"u  c #613A2A",
"i  c #623737",
"p  c #623A33",
"a  c #284539",
"s  c #355239",
"d  c #5D412E",
"f  c #4D433C",
"g  c #584239",
"h  c #67442B",
"j  c #644738",
"k  c #745537",
"l  c #2A3444",
"z  c #4D3C47",
"x  c #4F376D",
"c  c #354A4D",
"v  c #2D5245",
"b  c #34595A",
"n  c #366557",
"m  c #326C51",
"M  c #38785B",
"N  c #395962",
"B  c #3A6167",
"V  c #397763",
"C  c #3B7C64",
"Z  c #484546",
"A  c #4D4B4E",
"S  c #554846",
"D  c #4A4C53",
"F  c #5F4B50",
"G  c #495353",
"H  c #545152",
"J  c #585858",
"K  c #5C5C5D",
"L  c #685149",
"P  c #7A5D44",
"I  c #655856",
"U  c #466C54",
"Y  c #44765A",
"T  c #786456",
"R  c #736954",
"E  c #53576F",
"W  c #4C5A79",
"Q  c #625D67",
"!  c #5B6365",
"~  c #437C64",
"^  c #4C6975",
"/  c #646464",
"(  c #686768",
")  c #6D6C6D",
"_  c #716E6E",
"`  c #766F72",
"'  c #6D7576",
"]  c #737373",
"[  c #757779",
"{  c #7D7D7D",
"}  c #8B5F2C",
"|  c #8A5B3A",
" . c #8C6338",
".. c #956A3A",
"X. c #996C3D",
"o. c #97713E",
"O. c #815C41",
"+. c #8A6748",
"@. c #956B44",
"#. c #9C6C42",
"$. c #986B49",
"%. c #9A7243",
"&. c #9A724A",
"*. c #876B53",
"=. c #8E7153",
"-. c #987758",
";. c #A36B46",
":. c #A2724C",
">. c #997F64",
",. c #837772",
"<. c #39824B",
"1. c #3C8459",
"2. c #3D8364",
"3. c #3D8369",
"4. c #448A59",
"5. c #4A955B",
"6. c #54965A",
"7. c #5AAB5B",
"8. c #69BA5D",
"9. c #438966",
"0. c #41846B",
"q. c #428A6B",
"w. c #4A9462",
"e. c #549967",
"r. c #438571",
"t. c #468973",
"y. c #558D73",
"u. c #599978",
"i. c #6C8E76",
"p. c #62987B",
"a. c #58A56A",
"s. c #69B767",
"d. c #6CBD64",
"f. c #6BBC6B",
"g. c #75BC69",
"h. c #6DAD76",
"j. c #6CBD73",
"k. c #75BC75",
"l. c #6DC35D",
"z. c #6FC85F",
"x. c #6EC363",
"c. c #6CC16B",
"v. c #72C465",
"b. c #72C56A",
"n. c #6DC473",
"m. c #75C574",
"M. c #B0835C",
"N. c #9C8469",
"B. c #8B887D",
"V. c #998A79",
"C. c #A58665",
"Z. c #AC8E77",
"A. c #A7937C",
"S. c #82C57E",
"D. c #54378B",
"F. c #60338F",
"G. c #56588D",
"H. c #67528B",
"J. c #6B5299",
"K. c #5B6799",
"L. c #6D6D9A",
"P. c #6D56AA",
"I. c #5D78A3",
"U. c #657BAC",
"Y. c #876AD8",
"T. c #8970DA",
"R. c #9373E1",
"E. c #599084",
"W. c #768D8B",
"Q. c #649A86",
"!. c #72AC8F",
"~. c #78AE9A",
"^. c #6981AA",
"/. c #838383",
"(. c #84898A",
"). c #8C8C8C",
"_. c #8B9191",
"`. c #939393",
"'. c #989797",
"]. c #9D9D9D",
"[. c #A69A8F",
"{. c #8DB390",
"}. c #B3A896",
"|. c #8998A5",
" X c #8E9BB1",
".X c #A09FA0",
"XX c #98A3AB",
"oX c #89B0AC",
"OX c #8DA9B9",
"+X c #93ABBC",
"@X c #98A9B8",
"#X c #98B5BA",
"$X c #A2A2A2",
"%X c #AEA5A3",
"&X c #ABABAB",
"*X c #B1AAAF",
"=X c #A3ADBB",
"-X c #ABB7B6",
";X c #B4B4B4",
":X c #B5B6B6",
">X c #BBBBBB",
",X c #C8BAAA",
"<X c #D3BDAB",
"1X c #85C584",
"2X c #9ACE97",
"3X c #94C0A0",
"4X c #97C5B7",
"5X c #AED3AE",
"6X c #BBE5BD",
"7X c #D0C4B3",
"8X c #D8CCBB",
"9X c #D1DCBF",
"0X c #978FCA",
"qX c #9A91C9",
"wX c #A398CD",
"eX c #8EACC1",
"rX c #93AAC3",
"tX c #9AAAC6",
"yX c #9AB3C2",
"uX c #AEB8C6",
"iX c #B5D0CA",
"pX c #B7E2C5",
"aX c #C5C5C5",
"sX c #DDD4C4",
"dX c #D3D4CF",
"fX c #E2DACE",
"gX c #CEEACF",
"hX c #EBE9DA",
"jX c #E9F2DA",
"kX c #D5EFE8",
"lX c #EAEAE8",
"zX c #F1EEE4",
"xX c #F1EEEA",
"cX c #EBF8EB",
"vX c #F5F5EC",
"bX c #E7EAF0",
"nX c #EAFAF8",
"mX c #F5F6F5",
"MX c #F6F9F4",
"NX c #FAFBF3",
"BX c #F6F6F9",
"VX c #FAF6FA",
"CX c #F5FCFB",
"ZX c #FCFDFC",
/* pixels */
";X&X$X$X$X&X$X$X$X&X>X&X$X&X&X[ $X$X$X$X$X$X$X$X$X$X$X$X$X$X>X`.]..X$X$X$X$X$X'.].$X$X$X$X$X$X'.$X$X$X$X$X$X$X$X$X$X$X$X$X$X$X$X",
"].$X$X$X$X$X$X$X$X$X.X.X$X$X.Xi.'.$X$X$X$X$X$X$X$X&X$X$X$X$X.X].$X$X$X$X$X$X%X(.'.$X$X$X$X$X$X_.'.&X$X$X$X.X$X$X$X$X$X$X$X$X$X$X",
"$X$X$X$X$X$X$X$X$X&X$X.X.X.X%X).$X&X$X$X$X$X].$X$X$X$X$X$X$X$X`.'.$X$X$X$X$X$X]._.$X$X$X$X$X$X$X).$X$X$X$X$X$X$X$X.X$X$X$X$X$X$X",
"$X$X$X$X$X$X$X$X$X$X$X$X.X.X.X{ $X$X$X$X$X&X$X$X$X$X].&X$X.X&X`.'.$X$X$X$X$X$X].'.$X$X$X$X$X$X$X'.$X$X$X$X$X.X$X$X$X$X$X$X$X$X$X",
"$X$X$X$X$X.X$X$X$X$X$X$X.X$X$X'.$X$X$X$X].$X$X$X$X$X$X$X$X]..X).'.$X].$X].].$X].].$X$X$X].'.$X].'.$X$X$X$X$X$X.X$X$X.X$X$X$X$X$X",
"$X$X$X$X$X$X$X$X$X$X$X$X$X$X].].$X$X$X$X$X$X$X$X$X$X$X$X$X$X%X).'.$X.X$X$X$X$X$X$X$X$X$X$X$X$X$X$X$X$X$X$X$X$X$X$X$X$X$X$X$X$X$X",
"$X$X$X$X$X$X$X$X$X$X$X$X$X$X/.,.$X$X$X$X$X$X$X$X].].$X$X'.[ ] / ( ] _ _ ] ` ] _ _ $X$X$X$X$X].].'.$X$X$X$X$X$X.X$X$X$X$X$X$X$X$X",
"&X$X$X.X$X$X$X$X$X$X$X$X$XXX*X'.$X].$X$X$X$X$X$X$X$X$X$X( ; - ; - - - - - - = - + [ $X$X$X'.'./.).$X$X$X$X$X$X$X$X$X$X$X$X$X$X$X",
"$X/.).$X$X$X$X$X$X$X$X$X$X%X$X/.$X$X$X$X$X$X$X$X.X}.`.O s h.h.s.g.8.s.s.d.d.h.y.Y a - J $X$X&X$X].$X$X$X$X$X$X$X.X$X$X$X$X$X$X$X",
"$X;X&X$X$X$X$X$X$X$X$X$X$X$X$X/.$X$X$X$X$X$X$X$XJ 6 U 6.s.g.g.v.d.v.v.g.x.x.m.w.1.1.m a < ! $X].$X$X].$X$X].$X$X$X$X$X$X$X$X].i.",
"$X$X$X$X$X$X$X$X$X$X.X$X$X%X$X(.$X$X$X$X].$XK @ a 4.6.m.v.8.v.l.8.l.l.v.c.v.n.u.1.q.y.a   Z $X'.'.$X$X$X$X].$X$X$X$X.X$X.X%X`..X",
"$X$X&X$X$X$X$X$X$X$X$X$X$X$X].[ .X$X.X.X].$XA   v 4.7.n.m.m.l.8.8.s.8.s.x.5.1.1.1.V C a   D $X].].$X$X$X$X$X$X$X$X$X.X$X$X.X'.;X",
"$X$X$X$X$X$X$X$X$X$X$X$X$X$XXX,..X$X$XXX]..XG   v 4.w.a.a.5.k.6XgX6XgXgX5X4X4X4X4X4XiX'   G $X].].$X$X$X$X$X].$X$X$X$X$X.X$X&X].",
"$X$X$X&X$X.X$X$X$X).].$X$X&X`._ $X.X$X$X.X$XG   c 0.~ 0.4.m e.>X,X<X<X<X7X7X;X*X4X|.W.G   Z $X'.].$X$X$X$X$X$X$X$X$X.X$X$X$X$X$X",
"].$X$X.X$X$X$X$X_.] ].$X$X].! Z ].$X].].'.$XD   v t.C r.t.Q.e.B.V.N.N.N.C.N.B.{ ,.D < ,   A $X`.).$X$X$X$X$X]..X$X.X$X$X$X.X$X$X",
"K K _ B.`.$X.X$X`.] ].]./.) J H ) `..XB.( [ Z   v 3.q.C {.cXzXzXzXzXcXzXzXfXdXdXkXdXkX'   A ].A /.&X].$X$X$X$X$X$X$X$X.X$X$X$X$X",
">X>X;X&X%X$X$X$X$X$X&X$X$X$X&X&X$X$X$X$X`.'.A   v t.2.~ {.vXfX>.-.-.-.:.N.=.,.R [ 6 + +   H >X).).&X$X$X$X$X$X$X$X.X$X.X$X$X$X$X",
"XX$X$X].$X$X$X$X.X$X$X].$X$X$X].$X].$X$X].$X'.i.c < < s _.ZXVXsXfXfXsX8X9X8X7X;X5X-X=X!   Z XX'.).$X$X$X$X.X$X$X$X$X$X$X$X.X$X$X",
"$X.X$X$X$X$X$X$X$X$X$X$X$X$X$X$X$XXX.XXX$X) S K @   S %X[.).A.,X7X7X7X7X<X}.}.}.}.).' Z   A XX).`.$X$X].$X$X.X$X$X.X$X.X$X$X$X$X",
"$X$X$X$X$X$X$X$X$X$X.X$X$X$X$X$X`.B.,./.) 4 = - = = { ZXsXT +.+.| } |  .}  .}  .=.f < < > A _._._.$X$X$X$X$X$X$X$X$X$X$X$X.X$X$X",
"].$X$X$X$X$X$X$X$X$X$X$X].$X]._.K O X X ; 4.w.w.w.9.{.kXcXZXhXV.C.V.>.>.C.C.C.C.N.].uX_.B l 1 ' (.$X.X$X$X$X$X$X$X$X$X$X$X$X.X$X",
"$X$X$X$X$X$X].$X$X$X].].$XXX! + a 4.M M 4.j.j.j.f.d.k.h.5XjXjXzXxXxXvXzXlXvXzXzXzXiX=XE.b N c < 2 ].]..X.XXX$X.X$X.X$X$X$X$X$X'.",
"$X$X$X$X$X$X$X$X$X$XXX.Xi.5 c b M <.5.j.s.c.g.d.v.l.l.8.m.S.2XMXNXNXVXVXZXZXNXNXNXcXbX#XV V b >   '.$X.X$X$X$X$X$X$X$X$X$X$X$X`.",
"$X$X$X$X$X$X$X$X].].J 7 c v M 3.2.1.a.m.x.x.d.v.v.8.l.v.l.d.m.2X5XjXNXvXcXcXcXcXcX6X5X~.a.y.b l 6 Z D '..X$X$X$X$X$X$X$X$X$X$X`.",
"$X$X$X$X].$X$X$X$X].@   v w.3.3.9.M 5.m.c.x.x.v.x.x.c.v.x.b.d.d.v.1X1XS.S.S.{.S.1Xb.x.f.m.u.b v W + X K $X].].$X$X$X$X$X.X$X$Xi.",
"$X$X].$X$X$X$X$X! s 6 a m V V M 1.w.7.b.v.8.x.x.x.c.z.v.x.l.l.v.x.8.v.5X6X5X7XS.8.l.x.z.m.e.m m b + X J ).$X$X$X$X.X$X$X$X$X.X.X",
"$X$X$X$X$X$X].$X,   i.#XoXoX~.oXQ.<.5.s.x.x.v.x.x.x.x.x.l.x.d.d.m.2X2XcXZXZXNX2Xs.l.z.x.m.e.v b N 1 + c ( ].$X$X$X$X$X$X$X$X%X$X",
"].$X$X$X$X$X$X$X2   gXZXCXZXZXZXiXu.!.!.1Xs.s.g.b.v.v.x.v.v.v.d.1XjXCXcXVXmXNX2Xs.x.l.8.h.u.~ G.^ ^ W l X D $X$X$X$X$X$X$X.X.X.X",
"$X$X$X$X$X$X].$X2   aXmXhXzXvXvXnXCXnXCXpX4.a.n.f.f.c.c.c.n.m.f.1XgXlXBXMXVXCX{.h.f.c.7.<.u.oXrXeXtX+Xb   A $X$X$X$X$X$X.X$X.X%X",
"$X$X$X$X$X$X].].3   =.V.-.C.8XNXNXNXMXZXgX9.1.w.4.5.4.4.1.9.w.4.w.t.u.bXCXBXZX~.1.w.5.1.1.E.#X=X@XtX=XD   A $X].$X$X$X$X$X.X$X$X",
"$X$X$X$X$X$X$X&X3   P &.#.@.C.Z.Z.Z.Z.[._.4.1.9.2.3.3.q.3.C 3.2.0.M 0.kXBXBXCX~.C 3.C 3.3.~ ! Q ( I I 2   J $X$X].$X$X$X$X&X$X] ",
"`.].$X].].'.] H f 8 @.;.;.;.X...} ..;.&._ 1.0.0.3.t.t.3.q.r.q.r.q.C V kXnXCXCX!.n 3.3.t.~ n e 0 q q 0 9 * 7 A /.$X.X]..X].`./ A ",
"$X;X>X;X;X).@ o T -.#.;.;.;.o.%.%.o. .j U M 2.2.3.w.3.w.2.2.3.3.t.!.~.kXCXVXVX3X!.E.3.2.C M Z y u p j p S :   J &X*X;X;X*X].].%X",
"$X$X$X$X$X(.@ o P &.X.X.X.o.o...N.&.h   = Y q.0.3.2.2.2.2.3.2.V Q.kXnXnXZXZXNXVXnXoX2.t.C U f p p u p r S 3 . A ]..X$X$X$X$X$X$X",
"$X$X$X$X$X/.- o P :.;.#.%.#.o.&.o.-.d   = 4.t.9.2.2.3.3.q.q.3.V Q.kXnXnXnXnXMXcXnX4X3.q.0.U e w p u q q p *   z '..X.X$X$X$X$X$X",
"$X$X$X$X$X/.@ o P :.X.#.$.@.%.-.h # #   + M 0.q.1.2.1.2.2.2.2.3.3.Q.u.E.E.p.Q.E.Q.E.C 2.V U Z q u u q h p *   A &X.X.XXX$X$X$X$X",
"$X$X.X.X$X/., o  .:.;.#.&.@.%.%.k h 8 . @ E K.^.^.U.U.U.^.^.^.I.U.U.I.I.K.G.W W W G.W W G.D z i p w q w h 0 : 9 H ) $X$X$X$X$X$X",
"$X$X$X.X$X/.@ o k :.;.X.#.X.o.o.%.M.h . O D.P.R.T.T.Y.Y.Y.T.T.Y.T.Y.Y.Y.Y.J.D.D.D.F.F.F.E x x z i y d w w y L 3   5 $X$X$X$X].$X",
"$X$X$X.X$X/., o O.-.X...X.X.#.;.+.k g 7 D L.0XqXwX0XqX0XqXqXqXqXwXwX0XwXqXL.G.J.J.J.J.J.J.H.Q F i i p p h 0 9 &   4 $X$X$X$X$X$X",
"$X.X$X.X$X/.@   +.-.:.%.%.#.;.$.d   I BXCXCXZXCXCXZXCXCXCXZXZXZXVXmXCXZXBXuXeXrXrXtXtXyXqX@X.X( r i u p g *   & e ( $X$X].].].'.",
"$X$X.X$X$X).G 5 j P | k @.%.@.-.j   J cXZXVXVXZXZXZXVXNXZXNXNXZXVXVXZXbXkXuXXX@X+XeXeXeXOX+XoXD 9 i i y j :   J _.$X$X$X%X$X].'.",
"$X$X$X$X$X$X).$X5 . X o j =.=.=.0   J VXNXCXZXNXVXZXZXVXNXCXmXlXzXmXbX;XXX@XOX+XOX+XeX+XOX#X'.,   : r y f :   ( `.XX$X$X$X&X&X$X",
"$X$X$X$X$X$X).$X`.).(.).S . O X X   J xXVXCXZXZXZXCXZXCXVXZXuX2 O , < W.yX+XrX+X+XeX+X+XOX+X|.4   . . . X X   ] `..X$X$X$X.X$XXX",
"$X$X$X$X$X'.'.$X$X$X$X$X]./.7   D &XiXmXVXmXCXVXNXNXNXZX-XZ I ).Q     |.tXOXOXrXOX+X+XeXOXrX|.1   [ /.W.B.(.).).L.}.$X.X$X$X.X$X",
"$X$X$X.X$X%X$X$X$X$X$X$X$X$XA   _ ZXZXZXZXZXZXZXZXZXNXZX$X  5 >XXXO X XX#X+XrX+X+XrXrXyX+X=X|.l   '.$X.X$X$X$X$XB.$X$X.X$X$X$X$X",
"$X$X$X.X$X$X$X$X$X$X$X$X].$XA   L sXsX8X8XsX8XsXsX8X8XhXV.2 /..X$XD z ) ' W.).W.(./.(.(.(._.` 2   `..X.X$X.X$X.XB.$X$X$X.X$X.X$X",
"$X$X%X$X`..X$X&X$X$X$X$X$X&XZ   0 -.*.+.X.@.&.@.@.+.*.P g @ ) .X$X$X.XO   3 f r r r r t r e e @   `.$X$X.X$X.X.X(.].$X$X$X.X$X.X",
").$X]./ H `.].i.`.].].`.`.{ 2   8 =.&.@.X.;.;.#.&.=.d . f .X$X$X$X.X`.&   9 g i i i p p t y e o   `..X.X$X.X%X.XW..X$X$X.X$X$X$X",
"$X.X.X].].].$X`.'.:X;X$X.X.Xz . 9 -.@.X...X.X.X.#.=.w   f $X.X$X$X.X'.@   0 t q y u i u w y 0 #   ).$X$X$X$X.X$X).$X$X.X$X$X$X$X",
"&X$X*X>X>X;X;X;X;X;X5XaXaXaXH   * -.o.X.X.X.X.X.&.N.t   f .X].$X.X.X'.@   9 g p p r p p p p r #   `.$X$X$X$X$X$X'.$X.X$X$X$X'.'.",
"$X$X.X].].].].$X].$X].) ] ) ( T *.+.+. ...X.@.+.h d f f A $X].$X$X$X'.@ X 9 g q q w r r q g 0 o   `.$X].$X.X$X$X'.$X$X$X$X$X$X].",
"$X$X$X$X$X$X&X$X$X$X$X&XI   '.ZXsXV.A.A.A.Z.Z.A.0   J $X/.$X$X$X.X$X].Z 3 3 : L L L I I I J H @   `.$X$X$X$X.X.X'.$X$X$X$X.X$X&X",
"&X$X$X$X.X$X$X$X$X%X].>XW.  `.VXvXmXNXNXmXNXmXZXI   z .XXX.X$X].$X$X$X$X'./.7 ) ;X@XXX@X@XXX|.6   `..XXX$X$X$X$X'.$X$X$X$X$X.X.X",
"$X$X$X.X$X$X$X$X.X$X.X$X`   `.ZXVXZXZXZXZXBXdXaX/ < Q XX.X.X$X]..X$X$X$X.X].7 ^ yXrXrXtXrXyX|.4   `..X.X$X$X$X.X'.$X$X$X$X$X$X$X",
"$X$X$X$X$X$X$X$X.X$XXX$X)   ).mXxXvXxXlXxXlXQ   ' &X.X$X%X&X$X&X%X$X$X.X$X( , W.uXtXrX X|.XX_.4   ).'..X$X$X$X.X).$X$X$X$X$X$X$X",
"].$X$X.X$X.X.X$X$X$X].$X]   z T j I j L L F &   z .X'.`.).] H ] /.`.].$X].'.I S A S 3 5 3 5 2 & o @ 2 ` .X.X$X[ ( &X'.$X$X$X'.$X",
"&X$X$X$X$X$X$X.X.X$X].$X]   3 q q u q q q 0 o . A '.i.] _ _ [ [ ] ] /.`.&XK   # % & % $ $ $ % & & . . H ].].].i.i..X`.$X$X].(.`.",
"$X$X$X$X$X].$X$X$X$X$X$X)   : g y p u h y t $   ` *X%X&X&X&X;X&X&X&X&X$X&XK   o $ % $ $ % $ $ & O   . ( $X%X*X>X*X*X&X.X%X&X&X$X",
"$X$X$X$X$X$X$X$X$X$X].$XW.5 H _ ,.` ,.,.,._ Z 2 _..X].$X$X].$X].$X$X$X.X]./.z 7 A z e f S f z Z Z 5 ( .X.X.X.X'.`..X.X$X$X].$X].",
"$X$X$X$X$X$X$X.X$X$X$X$X].&X'.`.$X$X.X$X$X;XaX&X.X.X$X$X$X$X$X].$X$X$X$X$X$X.X$X$X$X$X$X].$X$X$X$X$X$X.X$X$X$X$X'.$X$X$X$X$X$X$X",
"$X$X$X$X$X$X$X$X.X$X&X$X.X&X`.).$X.X.X.X].].$X.X.X.X.X.X$X.X$X$X$X$X$X$X$X$X.X$X$X$X$X$X$X.X$X$X.X$X.X.X$X$X$X$X'.$X$X$X$X$X$X$X",
"$X$X$X$X$X$X$X$X$X$X$X$X$X%X`.).$X$X$X$XXX.X$X`.].].]..X$X].$X$X.X$X$X$X$X$X$X$X$X$X$X$X$X$X$X.X$X$X$X$X.X$X$X$X(..X$X$X$X$X$X$X",
"$X&X$X$X$X$X$X$X$X$X$X$X$X&X)./.&X].$X$X.X$X.X.X&X$X.X.X].$X$X$X$X$X$X$X$X$X$X$X$X$X$X$X.X].$X$X$X.X$X$X$X$X$X$X).$X$X.X$X$X$X.X",
"$X$X$X$X$X$X$X$X$X$X$X$X$X$X] _ %X$X$X.X$X.X.X`..X.X$X$X$X$X$X$X$X$X$X$X].$X$X$X$X$X$X$X$X$X$X$X$X$X$X$X$X$X$X.X/.$X$X$X$X$X$X$X"
};