/* XPM */
static char *_5631d9cf6fa4e41fd8ebbe5a3ea2c5cO0UZHLOmnve96uPF[] = {
/* columns rows colors chars-per-pixel */
"64 64 99 2 ",
"   c None",
".  c gray39",
"X  c #666363",
"o  c #646464",
"O  c #656565",
"+  c #686565",
"@  c #6C6564",
"#  c #6D6564",
"$  c #6E6565",
"%  c #6B6A6A",
"&  c #6D6A6A",
"*  c #746463",
"=  c #7A6663",
"-  c #7C6562",
";  c #7F6562",
":  c #7F6662",
">  c #7F6663",
",  c #806662",
"<  c #826663",
"1  c #836663",
"2  c #876663",
"3  c #836764",
"4  c #8C6763",
"5  c #9F6862",
"6  c #A46962",
"7  c #A56962",
"8  c #A46A62",
"9  c #B26A62",
"0  c #B46B62",
"q  c #BB6B61",
"w  c #E36E5F",
"e  c #E36F5F",
"r  c #E46E5F",
"t  c #E56E5F",
"y  c #E46F5F",
"u  c #E56F5F",
"i  c #E66E5E",
"p  c #E66E5F",
"a  c #E66F5F",
"s  c #E76F5F",
"d  c #E86F5E",
"f  c #E4705F",
"g  c #E5705F",
"h  c #E6705F",
"j  c #E7705F",
"k  c #E6715F",
"l  c #E7715F",
"z  c #E9705E",
"x  c #E8705F",
"c  c #E9705F",
"v  c #E8715F",
"b  c #E9715F",
"n  c #EA715F",
"m  c #EC715F",
"M  c #EF705F",
"N  c #C06C60",
"B  c #C16C60",
"V  c #C16C61",
"C  c #D56E60",
"Z  c #DF7060",
"A  c #E16F60",
"S  c #E27060",
"D  c #E37160",
"F  c #E27161",
"G  c #E77161",
"H  c #E47767",
"J  c #E97060",
"K  c #E97160",
"L  c #EA7060",
"P  c #EB7060",
"I  c #EA7160",
"U  c #EB7160",
"Y  c #E97260",
"T  c #EA7260",
"R  c #EB7260",
"E  c #EC7160",
"W  c #EE7160",
"Q  c #EF7160",
"!  c #EC7260",
"~  c #ED7260",
"^  c #ED7361",
"/  c #EE7260",
"(  c #EF7360",
")  c #EE7361",
"_  c #EF7361",
"`  c #EC7362",
"'  c #EF7665",
"]  c #EF7765",
"[  c #E87A6A",
"{  c #E87A6B",
"}  c #F07360",
"|  c #F17361",
" . c #F07664",
".. c #F07764",
"X. c #F17764",
"o. c #F07665",
"O. c #F07D6D",
"+. c #F08171",
"@. c #F18171",
/* pixels */
"      { o.o.o.' o. .' o.' ' ] ] o.o.o.o.o.o.' ' o. . .o.+.            +.o.' o.' o.o.o.' o.o.' ] o.o.o.o.o.o.o.o.o.o. .X.{       ",
"  R _ _ _ _ R _ _ } _ n _ _ ) ) J ) ) | ) R _ _ _ _ _ m ) '         _ _ R _ ) ) _ R _ _ _ _ R R ) ) _ _ m _ _ _ _ m } m  .m _   ",
"H _ _ _ } J _ _ _ _ g _ m  .) g ) ) } } A _ _ _ } g m ) } | & $ $ % ) R R }  .m J R } } _ g R _ _ _ g n _ _ _ g n ) )  .n R _ { ",
"R _ _ _ A P _ _ _ r _ _ } ) g m ) | | A _ } _ _ r m  .) } A . O O O A _ _ } } r J | | } r n _ _ _ g n ) _ _ g n ) ) ) g J } }  .",
"_ _ _ r m } } _ J d _ _ } r _ } } } A _ } } _ A m  .} } A P O O O . m _ _ } A } _ _ _ A _ | } } r R _ _ _ r n _ } } A R _ _ _ r ",
"_ _ r _ _ _ } r _ _ _ _ A } _ _ } A M | | } A _ } m } A P } O O . O _ _ _ A _ } _ } A P _ } } A R _ _ _ r n _ _ | A R | _ _ d d ",
"_ r _ _ _ } A _ _ _ _ r _ _ _ _ A P ) | ) A P | } } A _ } | O . . O _ _ r J _ _ } J R _ _ _ A P _ _ _ r n _ _ _ A P } } } r R _ ",
"r _ _ _ _ A } } _ _ w _ _ _ } r _ | ) M J P | ) } A } } } | . O O O _ r _ _ _ _ A J _ _ } A R _ _ _ r R } _ _ G J } } } A n _ _ ",
") ) | } A _ | | _ r _ _ _ _ r d | | ) J P } } | A P } } } A . O O O r _ _ _ _ r m _ _ _ A J } _ } A R | } } A R | | _ A n } _ _ ",
"| | | A M ) | M w _ _ _ _ r _ } | } A P | } } A P | } } A P O O O . n _ _ } A _ _ _ } r R _ } _ J J ) ) } A _ | ) ) d g } } _ G ",
") ) A } | ) } A _ _ _ _ A _ } } } A P ) ) } A _ } | } A } } O O . . _ _ _ r n _ } } A m _ _ } A J _ | | A R | | | J J _ _ } A n ",
"M A ) ) | ) A ) _ _ _ w P _ _ _ A ) | } ) A M | | | A _ } } O . . O _ _ r R _ _ } A R } } } J R _ _ } A J } } } A R _ _ _ d J } ",
"A } | ) } A P | } } A _ } _ _ A _ _ _ } A P | } ) A P } } _ . O O O } A _ _ _ _ A _ _ _ _ A J } _ } A _ } } | A n _ _ _ A R _ _ ",
"M | | ) A _ } } | A M ) } } A _ | | _ A P | ) } A _ } } } J O O O O r n _ _ _ r R } _ } J d } } _ A J } } } A R _ _ _ r R } _ _ ",
"| | ) A P | } } A M | | } A M } } } A _ } | } A P ) | | A P O O O . _ _ _ } r _ _ _ _ r P _ _ } A J } } } A R _ _ _ r n _ _ _ r ",
"| M A } | ) | A _ | | M A _ } } } A P | ) | A _ | | } A R _ O O . . _ _ _ r R _ _ _ A _ } } _ A P _ _ } A R _ _ } r R _ _ } r n ",
") A ) | ) } A M } _ _ J P } | | A } | | ) J P } } } A P | | O . . O _ } A J } } } A _ ) } } r J } ) | A R _ _ } A d _ _ _ g n _ ",
"A ) | | ) A P | } } A P } } } A P | } } A P | } } A P } | | . . O O _ J _ | } } A J _ } } r J _ } | A R _ _ _ A _ } } } G g _ _ ",
"} ) | } A _ | | _ A _ _ } } A P | ) ) A P ) ) ) A _ | } ) J O O O O A P _ _ } A P } } } A _ _ _ } A P } } } r d } _ _ r R } _ _ ",
"| | P A M ) | ) A _ _ _ ) A M | ) | A } | | } A ) ) ) } A A O O O . Z _ _ _ r d } } } A J _ _ _ A R } } } r n _ _ _ A n _ } } r ",
"    V V V V V V V V V V q V V V V V V V V V 0 V V V V q 7 O O O . . O 6 V B B V V V q V V V V 9 V V V V B B V V V q V V V V     ",
"    . O O O . O O O O . . O O O . . O O O . O O O O . O O O O . O O O O . . O O O O . O O O . O O + O . . O O O O . O O O .     ",
"    O O O . O O O O . O O O O . . O O O . . O O O . O O O O . . O O O . O O O O . . O O O . O O O O . O O O O . . O O O . O     ",
"    O O . . O O O . O O O O . O O O O . O O O O . . O O O . . O O O . O O O O . . O O O . O O + O O . O O O . . O O O . . O     ",
"    3 > 1 3 $ O . O O O O * 3 3 3 3 , 1 3 3 3 < 3 3 3 3 > 3 3 3 3 ; 3 3 3 3 , 3 3 3 3 < 3 3 3 3 , , > O O . . O O # , , 3 3     ",
"_ _ A _ ) ) _ 5 . O O O C P _ _ _ A P } } } A M } ) } A R | _ _ r J | } _ A P } | } A P } } } A R _ _ A . . O O 7 r g _ } } A R ",
"} A } } | ) A ) O O O . _ _ } } A _ } _ } A P | ) } A M | ) } A P } _ } A J } | } A J | _ } J J _ _ } r . O O O R n _ _ } A d } ",
"A _ _ _ ) J M | O O . . ) | } A _ _ _ _ A _ ) ) | J P | | } A ) } } _ A P | ) ) A R | | _ A J } _ _ r J O O O . _ _ _ _ A R } } ",
"} } | | A M } | O . . O ) ) A P _ _ } A P } } | A P | | | A P ) } } A P } ) | A R | ) } A J } } _ r R _ O O . O } _ } A _ _ _ _ ",
"} } } A _ | } } . . O O } A _ | _ _ A _ } } } A _ } } } J P | | } A _ ) | | A _ | } ) A _ | | } r R _ _ O . . O } } J J } _ } A ",
"_ } A | _ _ _ J O O O O A P | ) _ J P } | } A _ } ) | A P ) | } A M | | } A P } } } A R _ _ } A J _ _ _ O . O O | A R _ } } J d ",
"_ A M | _ _ A } O O O . M | | | A P } } | A M | | ) A P } } ) A _ | | } A R } } } A P _ _ _ A R } _ } r O O O + P P ) } } A J } ",
"A ) | | } A _ | O O . O _ _ _ r _ | } } A P | | } A _ | } } r J _ _ } A P } | | A J } | ) A J | ) } J R O O O . _ _ } } A d _ _ ",
"} ) | } J P _ | O . O O _ } r m _ | } A M ) | } A R _ } } r P _ _ _ A R } } } A R | | ) A P | | | A R _ O O . . } _ } A _ _ _ _ ",
"| ) M A P } } } . O O O _ r _ _ _ _ A P | | } A P } } } A _ _ _ _ J P _ } } A P | | } A _ } | } A J _ _ O . . O } _ A R _ } _ G ",
"| P A | | } } J . O O O r _ _ _ _ A _ | ) ) A ) | } } A J } _ _ A P } _ | A _ } | } A P } } ) A _ _ _ _ . . O O } J d } _ } r d ",
"| A M } } _ A } O O O . P _ _ _ A P } | _ A P } | } A M _ _ _ r J | } } A P | | } A P } _ _ r R _ _ } r . O O O P A } } _ r d } ",
"A } | | } r M } O O . . _ _ _ r M } ) | A _ } } ) A _ | _ } A _ | | } A P } ) | A _ } } _ w _ _ _ _ r J O O O . } | | } A _ _ _ ",
"P ) ) | A _ } } O . O O _ _ w _ | } ) A P | } } A P } ) _ r R _ ) | A P ) } ) A J } } } r P _ _ _ r _ _ O O . . } | } A _ } _ _ ",
"| | } A _ _ } A . O O O _ w _ _ | } A } | | | A } ) ) | r R _ _ } A _ ) | } J P _ _ _ r R } _ _ r J _ _ O . . O Z | A R _ } } A ",
"| ) A _ _ _ G O . O O O ; J _ _ ) A P } ) P A _ P _ _ w J _ _ _ A P _ _ _ A J _ _ _ A R _ _ _ A J _ P > . . O O O A J _ _ _ G J ",
"    O O O O . . O O O . . O O O . O O O O O O O O O . O O O O . O O O O . . O O O . . O O O . . O O O . . O O O . O O O . .     ",
"    O O O . O O O O . O O O O . . O O O . O O O O . O O O O . . O O O . . O O O . . O O O . O O O O . . O O O . . O O O . .     ",
"    O O . . O O O . O O O O . . O O O . O O O O . O O O O . . O O O . O O O O . . O O O . . O O O O . O O O . . O O O . . O     ",
"    O O O O O O . O O O O O O O O + . O O O O . O O O O . . O O O . O O O O . . O O O . . O O O . . O O O O . O O O . . O O     ",
"} M A ) _ _ } A _ _ P } r _ P ) } A P | P } r _ | } P J d 4 O O . . 2 } } r _ ) _ _ A _ } } } J R _ _ _ A R } } } r n _ _ _ r n ",
"} A ) ) } } A M _ _ } A P } | ) A M } | } A P } } } A _ } } O . O O P } A P } | _ A _ } } } A P _ _ _ r R ) } } r R _ _ } r n _ ",
"A } | | } A } } _ _ J P _ } } J P } } } A _ } } } A P _ } } . O O O } A P } } } A P } } _ A P } _ } r R | } } A J } }  .r n _ _ ",
"} | ) ) A } } ) | A ) ) | } A M } | ) J P } | | A } | ) } A O O O O A _ } } } A R _ _ _ r R _ _ _ J R _ } } J J } _ _ r n _ _ _ ",
"} | } A P | | ) A } ) | ) A P | } } A P | } } A P } ) | A _ O O O . _ ) } } A R _ _ _ r n _ _ } r d _ _ } A R _ _ _ r R _ _ } g ",
"| M A M | ) } A M ) ) | A _ | | _ A _ | ) } A P ) } ) A J } O O . . } | | A R _ _ _ r R _ _ } g d _ _ _ A R _ _ _ J d _ _ } R r ",
"} A | | | } A ) | | | A P ) | ) A _ _ } ) A } | | } J P _ _ O . . O } } A _ _ _ } r R _ _ _ r R } _ _ r J _ _ } A R _ _ _ r R } ",
"A M | ) ) A P | _ } A _ } ) | A d } } } r d _ _ ) A P | | ) . O O O _ A n } _ } A R _ _ _ r n _ _ _ A P } | } J n _ _ _ A R } } ",
"} | | } A M ) | _ J P | } | A _ _ _ } A _ _ _ _ J P ) | } A O O O O d P _ _ _ r _ _ _ _ r n _ _ } A R | ) ) A J _ _ _ r d } _ _ ",
"| ) | A M | ) } A M | ) } A M } _ _ r _ } _ _ r P | ) } A _ O O O . _ } _ _ r n _ _ _ r R _ _ _ A _ } ) | A _ _ _ _ r n _ _ _ A ",
") ) A | | | | A ) } | M A _ | } _ r _ _ _ _ r _ } } | A M | O O . . _ _ _ r _ _ _ _ w _ _ _ _ w P } } } A P } _ } r R _ _ } r _ ",
"_ A _ _ _ _ r _ | ) } J P | ) | A _ _ _ _ r R _ _ _ r R _ _ O . . O } } A J _ _ _ r m _ _ _ w R _ _ _ A R _ } } A d _ _ _ g g  .",
"A _ _ } _ w _ _ | ) A P } | } A _ _ _ _ r _ _ _ _ r _ _ _ _ . . O O } A _ _ _ _ r n _ _ } r R _ _ } r R _ _ } r _ } _ _ g n _ } ",
"} } } } r _ _ _ ) A } ) | } A P _ _ } r R _ _ _ r m _ _ _ G . O O O A _ _ _ _ A n _ _ _ r R _ _ _ A R _ _ _ r n _ _ _ r R _ _ _ ",
") } } r d _ } } A } | | | A | } } } r m _ _ _ r _ _ _ _ r R O O O . M } _ } r _ _ _ _ w _ _ _ _ r R _ } } A R _ _ _ r R _ } } r ",
"| } A M _ _ _ r _ _ _ _ A P | | _ r _ _ _ _ r _ _ _ _ r _ _ o O . O _ _ _ r _ _ _ _ r _ _ _ _ r _ _ _ _ r n } _ } A R _ _ _ r n ",
") A M | } } A _ _ _ _ r P } ) | r m _ _ _ w _ _ _ _ w _ _ _ O . . O _ } r P _ _ _ r m _ _ _ r R _ _ _ r n _ _ _ A J _ _ _ r R _ ",
"A ) | | _ r _ _ _ _ G _ _ _ | A _ _ _ _ g m _ _ _ g m _ _ _ . O O O } d R _ _ _ g _ _ _ _ n R _ _ _ n R _ _ _ J _ _ _ _ R _ _ d ",
"  | ) ) _ d _ _ _ R _ _ _ _ _ } _ _ _ R _ } _ } n _ _ _ _ R         d _ _ _ _ R R _ _ _ n _ _ _ _ n _ _ _ _ R R _ _ _ R R } }   "
};