/* XPM */
static char *_185c33eb3ae4313a25adcf6e44a403fFlY2ty7cldivPQCQ[] = {
/* columns rows colors chars-per-pixel */
"64 64 34 1 ",
"  c #64533A",
". c #316F52",
"X c #3E7B5E",
"o c #494949",
"O c #4E4E4E",
"+ c #41564C",
"@ c gray34",
"# c #585858",
"$ c #426153",
"% c #436A58",
"& c #5F6061",
"* c gray42",
"= c gray45",
"- c #717476",
"; c #359066",
": c #36AC75",
"> c #BEA077",
", c #FFC97E",
"< c #845E80",
"1 c #866D83",
"2 c #867684",
"3 c #28DF89",
"4 c #8C8F90",
"5 c #AAADAB",
"6 c #AEAEAE",
"7 c #B7B1A8",
"8 c #E3BE8A",
"9 c #FCE0BA",
"0 c #F889EC",
"q c #EEB3E8",
"w c #FFB4F7",
"e c #BFCACE",
"r c #FFCFFA",
"t c #FEE2FB",
/* pixels */
"==:::==###=====oo=666664oo=============rrw=====oo=666664##======",
"6666:6=4#==666=ttt6666e4o==66666666666=4w==666=4#=6666e4#==66666",
"r666:664#=666rttwrt666e4#=666666666666e4.=666664o=6666e4o=6666rr",
"ww6:66e4#=66rtww9wt66tttt=66666666:666e4.=6666e4#=6666e4o=666ww0",
"w36666e4#=66rttwwwr6ttrrtt6666;6:66666e4.=6666e4#=666ee4o=6666ww",
"3eee6e44#=666rrtwwrrr9wrrt66ee666ee6ee44.=666664o=46ee44#=66eeee",
"4444444o#=6666ttwwww9w9wrt44444:4:::444..=6666e4oo44444o##444444",
"o####rrro=6666r000www9wwwr###o;oo#o#ottttt666664#o##ooooooo##ooo",
"##==rtttr=66666rrr0wwwwwwr====;tt#==ttrrrrt666e4oo============#o",
"o==rtt9tt=6666rrwrr0wwwwrt666tttrtttrww9wwrt66e4#==6666:6:6666=4",
"o=6rtwwwtt666rrwwwrrwwwwrrt63trrrrtrww9w9wrt66e4#=666::666666664",
"o>,6ttwwwrrrrrwwwwwwwwwwwrtttrrr9wwwwww9wwrt66e4o=66666666366664",
"o=6rtrtwwwwwwwwww9wwwwwwwwrrrrwwwwwwwwwwwwt666e4#=66666666633ee4",
".=rttttwwwwwwwww9w9wwwwwwwwrrwwwwwwwwwwwwrr6ee44#=46666eeee3:e44",
".rttwwww,wwwwwwww9wwwrtwwwwwwwwwwwwwwwwww044444tttt444444444::4.",
".rtw9ww>88wwwwwwwwwwwrwwwwwwwwwwwwwwwwwww0o###ttrrrt#oo#o####...",
".rt9w9wr0o8,wwttwwwwwrwwwwwwwwwwwwwwww9w0o====trwwrrt==o#tttt==.",
".ttw9wwro==>tttrttwwwwwwwwwwww9ww,wwwww00==66rrww9wrt6=4ttrrtt=4",
".rtwwwrro=ttwwwwwwwww000wwwww9w9w>ttttw0#=tttrww9w9ttw64tr9rrt64",
".0trrtt0o=twwwwww,wwttttwwwwww9wwwrrrttwwrwwwwwww9wtw6:trwwwrrt4",
"o0ttt004#trww9www8>rrrrtwwwwwwwwwrwwwrttwwwwwwww00006;wtwwwwrtt4",
"#=00004&Otww9w9ww00rwwwwwwrtt0wwwwwwwrrrtwwwwwww06erttttwwwwrt64",
"#o4444&oOrtww9www0rrwwwwwwwrtt0wwwwwwwwrtwwwwwww0rrrrwwttwwwrt64",
"##ooOOOo0rrwwwwwtrrwwwwwwwwwrrt0wwwwwwwrttww9wwwwrwwwwwrttwwr664",
"oo=@@@@@0trwwwwwtrwwwwwwwwwwwwrtwwwwwwwrttw9w9wwwwwwwwwwrtww66e4",
"o==6*****0tttwwwtrwwwww9wwwwwwrwwwwwwwwrt0ww9wwwwwwww9wrrtw666e4",
"o=666****00rtttwwrrwww9w9wwwwwwwwww9wwwtt0wwwwwwwwww9w9rrt0666e4",
"o=666*******0rrrwwwwwww9wwwwwwwwww9w9wwrt0wwwwwwwwwrr9rr006666e4",
"o=6ttt*rtt*wwwwrwwwwwwwrwwwwwwwwwww9wwwrt0wwwwwwrrr00000#=666ee4",
"o=4tr9erw,wwwwwwwttttwwtwwwwwwwwwwwwwwwrt0000wwwwwrtt0e4#=466e44",
"oo4t9w9w,>rtwwwt0trwrtwtwwwwwwwwwwwwrrrtt08>>,wwwwrrttrrtt44444o",
"###rr9wwo#rtttw00trwwwwrrwwwwwwwwwrrrttt000>000wwwwrrtwwrrt###o#",
"====rw0oo#=rr00O$0rrrrrr0rrtwwwwwwwttt000ww00wwwwwwwrrtwwrrt====",
"66666-@4o@@***@&+@0000r0w000twwwwwww000wrt0wwwww9wwwwrtwwwrrt666",
"6*****-&o@**$*-%$@***6000wq00wwwwwwwwwwwwrt0www9w9wwwrtwwwwrt666",
"******-&o@**$%%&+@***-e,0000wwwwwwwwwwwwwrtt0www9wwwwrtwww9rt666",
"******-&o@*****&+@***-e4,8000wwwwwwrwwwwwrrt0wwwwwwwwt0wwwrtt666",
"e-*-*-&&o@$***-&+@&---&4,,880wwwwwwrrrwwwrrt60wwwwwwt0400rtteeee",
"4e44&44oo=6;6%*&++&&&&&++,880wwww9wwrr0wwttt66000wtt044o00044444",
"####ooooo=6;:6e&++o+o+222+,80www9w9wwrrrttt0:6300000oooo####o##o",
"##=====oo=;666e4++@@@1<<11,,00www9wwwrrttt06;6e4;o=============o",
"#==666==o=6666e4o@@***111**,80rrwwwwrttt00;;;6;;;==666r6666666=4",
"#=666664o=6666e4.@*********6380trttttt00.=66;6;4o=666rrr6666;;64",
"o=6666e4o=6666e4.=*********6.;8..00000e4.=66;6;;;=666r0r666;6664",
"o=666664o=666ee4.=6*******$*7,.8> . 66e4.=666;e4o=666r0r6;6;6ee4",
"o=666664#=4eee44o=4*--*-----,888>>   6e4.=4eee;4o=46e6ree6;eee44",
"#=6666e4oo44444o#o44&&&&&&&3,88>>    664..4444;##o44444444;4444o",
"#=6666e4#ooooooooo#oOOOOOOo,.;8>    6;6;....;o##o######o.....oo#",
"#=6666e4#o===========@@oOO,88;.>   666;4..=============...=====o",
"#=6666e4#==666666666**@&O@,888>.  6666e4.==66666666666=4.==666=4",
"#=6666e4o=6666666666**-&.3388>  .@666664.=66666666666664.=666664",
"o=6666e4#=666666666***X&,.38>   o@*66664.=666666666666e4.=666664",
"o=666ee4#=66666666:%*X,3,8..     @**66e4o=666666666666e4.=666664",
"#=466e44#=46eeee5;-*%33,,88>:.     -6e44ooo6e666eee6ee44.=666664",
"#o44444o#o444444o$33388,88>>>.: :   &&4o#ooo48>>8 44444o.=666664",
"##o##oooooooooooO3,,8:>,888>>;;;>>;   o####o,>     ###oo.=6666;4",
"oo=========oooo...;>::> ,,8>>  ;o;>    =o=o,8> oo  8oo=o.=6;66;4",
".==666666666ooo..;;; ; ; ,,8:..=oooo;   eooooooo#ooooo=4o=6;6:64",
".=6666666666eeooo;===;;.  ,:..=oo==oo.;oeeeoooooooooo6e4o=6:::64",
".=66666666666ee4oooeee.;;.  =.ooo   ===.e eeeooooooo66e4o=666:64",
".=66666663::6ee4oo66e6e;.;;.6oooeeeeeeeeeee666eoooo666e4o=666:;4",
".=4ee66::66eee44oo6666;..;4.eeooo=4eeeeere6e6e44o=6666e4o=46664;",
"..4444:44444444o#=6666e4. .4444ooo44444rrw44444o#=6666e4oo44444.",
"......:oo#####o#o=6666e4# # ###o####ooorrwo######=6666e4oo.o...."
};
